<?xml version="1.0" encoding="utf-8"?>
<!-- Generator: Adobe Illustrator 25.4.1, SVG Export Plug-In . SVG Version: 6.00 Build 0)  -->
<!DOCTYPE svg PUBLIC "-//W3C//DTD SVG 1.1//EN" "http://www.w3.org/Graphics/SVG/1.1/DTD/svg11.dtd" [
	<!ENTITY st0 "display:none;">
	<!ENTITY st1 "display:inline;">
	<!ENTITY st2 "fill:#FFFFFF;">
	<!ENTITY st3 "fill:#AAF0D1;">
	<!ENTITY st4 "fill:#F4F4F4;">
	<!ENTITY st5 "fill:#7B3F00;">
]>
<svg version="1.1" xmlns="http://www.w3.org/2000/svg" xmlns:xlink="http://www.w3.org/1999/xlink" x="0px" y="0px"
	 viewBox="0 0 400 400" style="enable-background:new 0 0 400 400;" xml:space="preserve">
<g id="Layer_3" style="&st0;">
	<g id="XMLID_00000021117928478998325020000016387836075490250117_" style="&st1;">
		<g>
			<path style="&st2;" d="M197.29,115.41c0.1,2.42-0.19,4.96-1.27,7.16c-0.98,1.96-2.6,3.67-4.71,4.4
				c-2.27,0.79-4.88,0.55-7.21,0.14c-2.17-0.38-4.58-1.13-5.93-3c-1-1.39-1.21-3.08-1.15-4.77c0.23-0.08,0.43-0.29,0.38-0.59
				c-0.1-0.69-0.13-1.39-0.12-2.09c0-0.04,0.01-0.08,0.01-0.11c0.01-0.05,0-0.09-0.01-0.13c0.14-3.62,1.82-7.18,5-9.08
				c1.84-1.1,4.06-1.63,6.18-1.29c1.22,0.19,2.33,0.69,3.42,1.25c1.06,0.54,2.13,1.1,3.01,1.91
				C196.63,110.79,197.19,113.13,197.29,115.41z"/>
			<path style="&st2;" d="M112.91,225.46c-0.02,0.58,0.01,1.16,0.07,1.74c-0.06,0.28-0.11,0.57-0.17,0.85
				c-1.89-4.02-2.83-8.42-3.21-12.83c-0.45-5.07-0.31-10.2,0.07-15.26c0.77-10.55,2.94-20.99,6.43-30.97
				c3.12-8.95,7.33-17.53,12.7-25.34c5.49-7.97,12.24-15.06,20.06-20.78c1.97-1.45,4-2.81,6.1-4.08c1.03-0.62,2.07-1.23,3.12-1.81
				c1.09-0.6,2.22-1.3,3.43-1.61c2.4-0.61,4.56,1.28,5.99,2.99c1.43,1.71,2.41,3.95,1.92,6.21c-0.15,0.7-0.44,1.33-0.84,1.9
				c-0.14-0.02-0.28,0-0.41,0.1c-3.25,2.56-6.52,5.11-9.77,7.67c-3.15,2.5-6.26,5.06-9.07,7.93c-2.79,2.84-5.32,5.93-7.83,9.01
				c-2.47,3.04-4.94,6.07-7.23,9.26c-2.25,3.15-4.25,6.45-5.94,9.93c-1.63,3.37-3,6.87-4.23,10.4c-2.5,7.19-4.49,14.55-6.95,21.75
				c-0.64,1.87-1.23,3.75-1.46,5.72c-0.24,2.04-0.15,4.11-0.49,6.15C114.57,218.1,113.05,221.66,112.91,225.46z"/>
			<path style="&st2;" d="M256.64,246.41c2.96,1.77,3.81,5.5,2.94,8.65c-0.22,0.78-0.53,1.53-0.91,2.24
				c-0.51,0.94-1.08,1.46-2.17,1.6c-1.83,0.22-3.7-0.07-5.45-0.61c-3.83-1.17-7.31-3.4-10.77-5.39c1.33-2.77,3.75-4.79,6.55-6.02
				C249.71,245.62,253.77,244.7,256.64,246.41z"/>
			<path style="&st2;" d="M197.38,258.27c-0.48-3.1-0.18-6.4,1.49-9.11c2.74-4.45,8.31-6.43,13.33-6.42
				c5.09,0.02,10.09,1.88,14.09,5.01c0.01,0.05,0.03,0.1,0.06,0.15c0.47,0.79,1.22,1.3,2.03,1.69c0.19,0.19,0.38,0.38,0.57,0.58
				c0,0.01-0.01,0.01-0.01,0.01c-0.28,0.45,0.25,0.86,0.64,0.69c0.04,0.04,0.07,0.08,0.11,0.12c0.12,0.14,0.25,0.17,0.39,0.15
				c0.01,0.21,0.14,0.42,0.35,0.45c0.29,0.04,0.55-0.01,0.75-0.18c-0.14,0.37-0.46,0.75-0.67,0.99c-1.06,1.25-2.16,2.48-3.31,3.65
				c-2.27,2.32-4.73,4.46-7.46,6.22c-2.73,1.76-5.72,3.14-8.88,3.91c-1.59,0.38-3.21,0.61-4.85,0.64c-1.53,0.04-3.15-0.09-4.53-0.83
				C198.77,264.52,197.81,261.1,197.38,258.27z"/>
			<path style="&st3;" d="M198.05,248.58c-1.83,2.93-2.15,6.49-1.65,9.85c0.46,3.06,1.55,6.65,4.4,8.32
				c1.44,0.84,3.16,1.08,4.8,1.08c1.82,0,3.65-0.24,5.42-0.67c3.52-0.84,6.86-2.42,9.86-4.45c3.04-2.05,5.75-4.54,8.23-7.22
				c0.62-0.67,1.23-1.36,1.83-2.05c0.5-0.59,1.09-1.2,1.27-1.98c0.24-1.13-0.65-2-1.71-2.05c-0.14-0.06-0.27-0.12-0.41-0.17
				c-0.01-0.13-0.08-0.26-0.23-0.35c-0.72-0.43-1.44-0.85-2.16-1.28c-4.05-3.44-9.2-5.56-14.53-5.84
				C207.53,241.47,201.17,243.6,198.05,248.58z M116.99,163.77c-4.04,10.07-6.67,20.7-7.88,31.48c-0.61,5.38-0.9,10.82-0.73,16.24
				c0.16,5.08,0.8,10.23,2.66,14.99c0.45,1.16,0.96,2.28,1.55,3.37c0.19,0.37,0.83,0.31,0.91-0.12c0.08-0.4,0.16-0.8,0.24-1.21
				c0.2-0.08,0.37-0.29,0.32-0.57c-0.04-0.24-0.05-0.48-0.07-0.72c0.03-0.16,0.06-0.31,0.09-0.46c0.03-0.2-0.04-0.36-0.16-0.47
				c-0.08-3.21,1.03-6.35,1.78-9.44c0.46-1.9,0.71-3.79,0.8-5.73c0.09-2.05,0.28-4.01,0.86-5.98c0.53-1.85,1.21-3.66,1.81-5.48
				c0.58-1.77,1.14-3.55,1.68-5.33c1.11-3.59,2.18-7.2,3.36-10.77c2.36-7.16,5.21-14.14,9.41-20.43c2.17-3.25,4.59-6.32,7.05-9.36
				c2.48-3.05,4.94-6.13,7.6-9.03c5.4-5.91,11.92-10.65,18.2-15.58c0.52-0.4,1.03-0.81,1.55-1.22c0.18,0.12,0.42,0.14,0.62-0.04
				c1.58-1.43,2.14-3.65,1.81-5.71c-0.36-2.26-1.78-4.26-3.42-5.79c-1.73-1.61-3.95-2.68-6.3-1.85c-1.14,0.4-2.2,1.03-3.25,1.61
				c-1.15,0.64-2.28,1.3-3.4,1.99c-8.62,5.29-16.24,12.11-22.5,20.05C125.48,145.95,120.65,154.63,116.99,163.77z M104.52,198.45
				c-4.84-18.78-0.24-38.82,9.55-55.23c9.58-16.05,24.28-28.81,41.09-36.84c16.98-8.11,36.11-11.23,54.77-8.63
				c18.95,2.64,37.16,10.83,51.54,23.49c7.45,6.56,14.27,14.36,17.2,24.02c3.08,10.19,2.19,21.01,2.42,31.5
				c0.06,2.51,0.18,5.03,0.42,7.53c-0.05-0.01-0.1-0.02-0.15-0.03c-0.63-0.11-0.89,0.85-0.26,0.97c5.44,1,10.88,1.99,16.32,3
				c4.82,0.89,9.78,1.9,13.99,4.56c3.83,2.42,6.7,6.14,7.2,10.74c0.54,4.89-1.17,9.79-3.26,14.14c-2.49,5.18-5.55,10.08-9.04,14.64
				c-0.09,0.12-0.1,0.23-0.09,0.33c-0.21,0.08-0.36,0.28-0.27,0.56c1.83,5.58,3.94,12.35,0.98,17.92c-1.47,2.77-4.02,4.74-6.39,6.7
				c-2.55,2.12-5.13,4.22-7.89,6.07c-2.78,1.87-5.74,3.44-8.91,4.55c-3.16,1.1-6.43,1.83-9.72,2.39c-6.56,1.11-13.26,1.36-19.89,0.8
				c-7.35-0.62-14.61-2.29-21.51-4.92c-0.03-0.31-0.37-0.62-0.75-0.44c-11.35,5.34-21.21,13.46-32.91,18.08
				c-5.7,2.25-11.81,3.67-17.96,3.23c-6.14-0.43-12.01-2.66-17.41-5.5c-6.31-3.33-12.25-7.41-17.78-11.91
				c-0.2-0.16-0.43-0.14-0.61-0.03c0.02-0.27-0.13-0.55-0.47-0.56c-10.05-0.16-20.08,1.44-30.11,0.67
				c-8.4-0.65-17.09-3.07-23.28-9.07c-3.14-3.03-5.5-6.76-7.33-10.7c-2-4.29-3.5-8.89-4.2-13.58c-1.15-7.8,0.67-15.66,4.89-22.3
				c3.99-6.29,10.03-11.39,17.11-13.84c0.87-0.3,1.76-0.56,2.65-0.79c0.6-0.15,0.38-1.03-0.2-0.96
				C104.45,198.91,104.58,198.72,104.52,198.45z M260.17,256.43c1.33-3.35,0.93-7.44-1.83-9.98c-2.79-2.58-6.97-2.17-10.33-1.08
				c-3.64,1.19-6.98,3.58-8.63,7.1c-0.01,0.03-0.01,0.05-0.02,0.07c-0.37,0.1-0.57,0.66-0.14,0.91c3.67,2.07,7.32,4.45,11.35,5.74
				c1.9,0.61,3.94,0.93,5.93,0.71c0.9-0.11,1.74-0.35,2.35-1.06C259.44,258.14,259.83,257.27,260.17,256.43z M198.29,117
				c0.09-2.43-0.16-5.11-1.56-7.18c-0.71-1.05-1.68-1.86-2.76-2.51c-1.17-0.72-2.42-1.37-3.71-1.83c-2.24-0.8-4.74-0.65-6.93,0.23
				c-4.46,1.8-6.87,6.2-7.02,10.79c-0.01,0.02-0.01,0.03-0.02,0.05c-0.31,2.45-0.59,5.14,0.62,7.42c1.09,2.04,3.22,3.18,5.39,3.77
				c2.42,0.65,5.16,0.95,7.65,0.59c2.53-0.38,4.64-1.79,6.1-3.87C197.58,122.3,198.19,119.62,198.29,117z"/>
			<path style="&st2;" d="M259.58,255.06c0.87-3.15,0.02-6.88-2.94-8.65c-2.87-1.71-6.93-0.79-9.81,0.47
				c-2.8,1.23-5.22,3.25-6.55,6.02c3.46,1.99,6.94,4.22,10.77,5.39c1.75,0.54,3.62,0.83,5.45,0.61c1.09-0.14,1.66-0.66,2.17-1.6
				C259.05,256.59,259.36,255.84,259.58,255.06z M256.5,259.9c-1.99,0.22-4.03-0.1-5.93-0.71c-4.03-1.29-7.68-3.67-11.35-5.74
				c-0.43-0.25-0.23-0.81,0.14-0.91c0.01-0.02,0.01-0.04,0.02-0.07c1.65-3.52,4.99-5.91,8.63-7.1c3.36-1.09,7.54-1.5,10.33,1.08
				c2.76,2.54,3.16,6.63,1.83,9.98c-0.34,0.84-0.73,1.71-1.32,2.41C258.24,259.55,257.4,259.79,256.5,259.9z"/>
			<path style="&st2;" d="M205.6,267.83c-1.64,0-3.36-0.24-4.8-1.08c-2.85-1.67-3.94-5.26-4.4-8.32c-0.5-3.36-0.18-6.92,1.65-9.85
				c3.12-4.98,9.48-7.11,15.12-6.81c5.33,0.28,10.48,2.4,14.53,5.84c0.72,0.43,1.44,0.85,2.16,1.28c0.15,0.09,0.22,0.22,0.23,0.35
				c0.14,0.05,0.27,0.11,0.41,0.17c1.06,0.05,1.95,0.92,1.71,2.05c-0.18,0.78-0.77,1.39-1.27,1.98c-0.6,0.69-1.21,1.38-1.83,2.05
				c-2.48,2.68-5.19,5.17-8.23,7.22c-3,2.03-6.34,3.61-9.86,4.45C209.25,267.59,207.42,267.83,205.6,267.83z M201.48,265.99
				c1.38,0.74,3,0.87,4.53,0.83c1.64-0.03,3.26-0.26,4.85-0.64c3.16-0.77,6.15-2.15,8.88-3.91c2.73-1.76,5.19-3.9,7.46-6.22
				c1.15-1.17,2.25-2.4,3.31-3.65c0.21-0.24,0.53-0.62,0.67-0.99c-0.2,0.17-0.46,0.22-0.75,0.18c-0.21-0.03-0.34-0.24-0.35-0.45
				c-0.14,0.02-0.27-0.01-0.39-0.15c-0.04-0.04-0.07-0.08-0.11-0.12c-0.39,0.17-0.92-0.24-0.64-0.69c0,0,0.01,0,0.01-0.01
				c-0.19-0.2-0.38-0.39-0.57-0.58c-0.81-0.39-1.56-0.9-2.03-1.69c-0.03-0.05-0.05-0.1-0.06-0.15c-4-3.13-9-4.99-14.09-5.01
				c-5.02-0.01-10.59,1.97-13.33,6.42c-1.67,2.71-1.97,6.01-1.49,9.11C197.81,261.1,198.77,264.52,201.48,265.99z"/>
			<path style="&st4;" d="M188.46,106.05c-2.12-0.34-4.34,0.19-6.18,1.29c-3.18,1.9-4.86,5.46-5,9.08c0.01,0.04,0.02,0.08,0.01,0.13
				c0,0.03-0.01,0.07-0.01,0.11c-0.01,0.7,0.02,1.4,0.12,2.09c0.05,0.3-0.15,0.51-0.38,0.59c-0.06,1.69,0.15,3.38,1.15,4.77
				c1.35,1.87,3.76,2.62,5.93,3c2.33,0.41,4.94,0.65,7.21-0.14c2.11-0.73,3.73-2.44,4.71-4.4c1.08-2.2,1.37-4.74,1.27-7.16
				c-0.1-2.28-0.66-4.62-2.4-6.2c-0.88-0.81-1.95-1.37-3.01-1.91C190.79,106.74,189.68,106.24,188.46,106.05z M183.33,105.71
				c2.19-0.88,4.69-1.03,6.93-0.23c1.29,0.46,2.54,1.11,3.71,1.83c1.08,0.65,2.05,1.46,2.76,2.51c1.4,2.07,1.65,4.75,1.56,7.18
				c-0.1,2.62-0.71,5.3-2.24,7.46c-1.46,2.08-3.57,3.49-6.1,3.87c-2.49,0.36-5.23,0.06-7.65-0.59c-2.17-0.59-4.3-1.73-5.39-3.77
				c-1.21-2.28-0.93-4.97-0.62-7.42c0.01-0.02,0.01-0.03,0.02-0.05C176.46,111.91,178.87,107.51,183.33,105.71z"/>
			<path style="&st4;" d="M144.67,107.16c-0.64,0-0.64-1,0-1C145.32,106.16,145.31,107.16,144.67,107.16z"/>
			<path style="&st4;" d="M111.73,108.69c0.64,0,0.64,1,0,1C111.08,109.69,111.09,108.69,111.73,108.69z"/>
			<path style="&st2;" d="M112.98,227.2c-0.06-0.58-0.09-1.16-0.07-1.74c0.14-3.8,1.66-7.36,2.29-11.07
				c0.34-2.04,0.25-4.11,0.49-6.15c0.23-1.97,0.82-3.85,1.46-5.72c2.46-7.2,4.45-14.56,6.95-21.75c1.23-3.53,2.6-7.03,4.23-10.4
				c1.69-3.48,3.69-6.78,5.94-9.93c2.29-3.19,4.76-6.22,7.23-9.26c2.51-3.08,5.04-6.17,7.83-9.01c2.81-2.87,5.92-5.43,9.07-7.93
				c3.25-2.56,6.52-5.11,9.77-7.67c0.13-0.1,0.27-0.12,0.41-0.1c0.4-0.57,0.69-1.2,0.84-1.9c0.49-2.26-0.49-4.5-1.92-6.21
				c-1.43-1.71-3.59-3.6-5.99-2.99c-1.21,0.31-2.34,1.01-3.43,1.61c-1.05,0.58-2.09,1.19-3.12,1.81c-2.1,1.27-4.13,2.63-6.1,4.08
				c-7.82,5.72-14.57,12.81-20.06,20.78c-5.37,7.81-9.58,16.39-12.7,25.34c-3.49,9.98-5.66,20.42-6.43,30.97
				c-0.38,5.06-0.52,10.19-0.07,15.26c0.38,4.41,1.32,8.81,3.21,12.83C112.87,227.77,112.92,227.48,112.98,227.2z M111.04,226.48
				c-1.86-4.76-2.5-9.91-2.66-14.99c-0.17-5.42,0.12-10.86,0.73-16.24c1.21-10.78,3.84-21.41,7.88-31.48
				c3.66-9.14,8.49-17.82,14.59-25.56c6.26-7.94,13.88-14.76,22.5-20.05c1.12-0.69,2.25-1.35,3.4-1.99
				c1.05-0.58,2.11-1.21,3.25-1.61c2.35-0.83,4.57,0.24,6.3,1.85c1.64,1.53,3.06,3.53,3.42,5.79c0.33,2.06-0.23,4.28-1.81,5.71
				c-0.2,0.18-0.44,0.16-0.62,0.04c-0.52,0.41-1.03,0.82-1.55,1.22c-6.28,4.93-12.8,9.67-18.2,15.58c-2.66,2.9-5.12,5.98-7.6,9.03
				c-2.46,3.04-4.88,6.11-7.05,9.36c-4.2,6.29-7.05,13.27-9.41,20.43c-1.18,3.57-2.25,7.18-3.36,10.77
				c-0.54,1.78-1.1,3.56-1.68,5.33c-0.6,1.82-1.28,3.63-1.81,5.48c-0.58,1.97-0.77,3.93-0.86,5.98c-0.09,1.94-0.34,3.83-0.8,5.73
				c-0.75,3.09-1.86,6.23-1.78,9.44c0.12,0.11,0.19,0.27,0.16,0.47c-0.03,0.15-0.06,0.3-0.09,0.46c0.02,0.24,0.03,0.48,0.07,0.72
				c0.05,0.28-0.12,0.49-0.32,0.57c-0.08,0.41-0.16,0.81-0.24,1.21c-0.08,0.43-0.72,0.49-0.91,0.12
				C112,228.76,111.49,227.64,111.04,226.48z"/>
			<path style="&st5;" d="M98.14,267.12c-3.94-1.93-7.39-4.68-10.12-8.12c-2.74-3.44-4.76-7.38-6.34-11.47
				c-1.79-4.64-3.06-9.55-3.22-14.54c-0.24-7.68,2.48-15.3,7.11-21.39c4.58-6.02,11.03-10.63,18.39-12.53
				c-0.18-0.01-0.35-0.12-0.41-0.35c-0.6-2.32-1.06-4.67-1.39-7.05c-1.3-9.48-0.41-19.17,2.16-28.37
				c2.61-9.36,6.94-18.25,12.53-26.19c5.45-7.75,12.14-14.61,19.63-20.4c7.42-5.74,15.63-10.41,24.34-13.89
				c8.77-3.5,18.03-5.75,27.44-6.6c9.6-0.87,19.32-0.23,28.75,1.76c9.5,2.01,18.71,5.41,27.24,10.05
				c8.51,4.62,16.4,10.5,23.15,17.47c3.49,3.61,6.68,7.57,9.09,12c2.52,4.61,3.99,9.66,4.73,14.86c1.5,10.63,0.27,21.4,1.3,32.06
				c0,0.02-0.01,0.03-0.01,0.05c5.89,1.07,11.8,2.08,17.67,3.27c4.82,0.98,9.65,2.4,13.57,5.49c3.67,2.9,5.87,7.06,5.96,11.76
				c0.09,5.02-1.82,9.88-4.04,14.28c-2.4,4.77-5.25,9.31-8.5,13.55c-0.06,0.09-0.15,0.13-0.24,0.17c2.08,6.33,4.26,14.1-0.01,20.04
				c-1.89,2.63-4.58,4.61-7.05,6.64c-2.58,2.11-5.2,4.17-8.02,5.94c-5.91,3.7-12.62,5.5-19.47,6.48
				c-13.58,1.96-27.62,0.39-40.42-4.56c-0.07-0.02-0.13-0.06-0.17-0.11c-6.3,3.03-12.15,6.86-18.12,10.46
				c-10.58,6.38-22.51,12.26-35.23,10.43c-6.14-0.89-11.94-3.41-17.32-6.44c-5.64-3.18-10.99-6.9-16.01-10.99
				c-0.13-0.1-0.18-0.22-0.17-0.34c-0.06,0.03-0.13,0.04-0.21,0.04c-1.31-0.02-2.63-0.01-3.94,0.01
				c-10.08,0.22-20.21,1.67-30.26,0.2C106.25,270.17,102.03,269.02,98.14,267.12z M84.01,250.48c1.83,3.94,4.19,7.67,7.33,10.7
				c6.19,6,14.88,8.42,23.28,9.07c10.03,0.77,20.06-0.83,30.11-0.67c0.34,0.01,0.49,0.29,0.47,0.56c0.18-0.11,0.41-0.13,0.61,0.03
				c5.53,4.5,11.47,8.58,17.78,11.91c5.4,2.84,11.27,5.07,17.41,5.5c6.15,0.44,12.26-0.98,17.96-3.23
				c11.7-4.62,21.56-12.74,32.91-18.08c0.38-0.18,0.72,0.13,0.75,0.44c6.9,2.63,14.16,4.3,21.51,4.92
				c6.63,0.56,13.33,0.31,19.89-0.8c3.29-0.56,6.56-1.29,9.72-2.39c3.17-1.11,6.13-2.68,8.91-4.55c2.76-1.85,5.34-3.95,7.89-6.07
				c2.37-1.96,4.92-3.93,6.39-6.7c2.96-5.57,0.85-12.34-0.98-17.92c-0.09-0.28,0.06-0.48,0.27-0.56c-0.01-0.1,0-0.21,0.09-0.33
				c3.49-4.56,6.55-9.46,9.04-14.64c2.09-4.35,3.8-9.25,3.26-14.14c-0.5-4.6-3.37-8.32-7.2-10.74c-4.21-2.66-9.17-3.67-13.99-4.56
				c-5.44-1.01-10.88-2-16.32-3c-0.63-0.12-0.37-1.08,0.26-0.97c0.05,0.01,0.1,0.02,0.15,0.03c-0.24-2.5-0.36-5.02-0.42-7.53
				c-0.23-10.49,0.66-21.31-2.42-31.5c-2.93-9.66-9.75-17.46-17.2-24.02c-14.38-12.66-32.59-20.85-51.54-23.49
				c-18.66-2.6-37.79,0.52-54.77,8.63c-16.81,8.03-31.51,20.79-41.09,36.84c-9.79,16.41-14.39,36.45-9.55,55.23
				c0.06,0.27-0.07,0.46-0.26,0.56c0.58-0.07,0.8,0.81,0.2,0.96c-0.89,0.23-1.78,0.49-2.65,0.79c-7.08,2.45-13.12,7.55-17.11,13.84
				c-4.22,6.64-6.04,14.5-4.89,22.3C80.51,241.59,82.01,246.19,84.01,250.48z"/>
		</g>
		<g>
		</g>
	</g>
</g>
<g id="Layer_2">
	<g id="XMLID_00000087410727947336371340000006484577843257172354_">
		<g>
			<path style="&st5;" d="M281.09,176.75c0.06,2.52,0.18,5.03,0.41,7.54c-0.04-0.01-0.09-0.02-0.14-0.03
				c-0.63-0.11-0.9,0.85-0.27,0.96c5.44,1,10.89,2,16.32,3c4.83,0.9,9.79,1.91,13.99,4.57c3.84,2.42,6.7,6.13,7.21,10.73
				c0.54,4.89-1.18,9.8-3.27,14.15c-2.48,5.17-5.55,10.08-9.03,14.64c-0.09,0.11-0.11,0.22-0.09,0.32
				c-0.21,0.09-0.36,0.29-0.27,0.57c1.83,5.57,3.94,12.35,0.98,17.92c-1.47,2.77-4.02,4.74-6.39,6.7c-2.56,2.12-5.13,4.22-7.89,6.07
				c-2.79,1.87-5.75,3.44-8.92,4.54c-3.15,1.1-6.43,1.84-9.72,2.4c-6.55,1.1-13.26,1.36-19.88,0.8c-7.36-0.63-14.61-2.29-21.51-4.92
				c-0.03-0.31-0.37-0.62-0.75-0.44c-11.35,5.33-21.21,13.45-32.91,18.08c-5.7,2.25-11.81,3.66-17.97,3.23
				c-6.14-0.43-12-2.66-17.4-5.51c-6.31-3.32-12.26-7.4-17.78-11.9c-0.2-0.17-0.44-0.14-0.61-0.04c0.02-0.26-0.13-0.55-0.48-0.55
				c-10.04-0.16-20.07,1.44-30.11,0.66c-8.4-0.64-17.08-3.07-23.28-9.06c-3.13-3.03-5.49-6.77-7.33-10.71
				c-1.99-4.28-3.5-8.89-4.19-13.57c-1.16-7.81,0.66-15.66,4.88-22.3c4-6.3,10.04-11.39,17.11-13.84c0.88-0.31,1.76-0.57,2.66-0.79
				c0.6-0.15,0.37-1.04-0.2-0.97c0.19-0.09,0.32-0.29,0.25-0.55c-4.84-18.78-0.24-38.82,9.56-55.24
				c9.58-16.05,24.28-28.81,41.09-36.83c16.98-8.11,36.11-11.23,54.76-8.63c18.96,2.64,37.17,10.83,51.55,23.49
				c7.45,6.55,14.27,14.35,17.19,24.02C281.74,155.45,280.85,166.26,281.09,176.75z M196.39,258.42c0.46,3.07,1.55,6.66,4.4,8.33
				c1.45,0.84,3.16,1.07,4.81,1.07c1.82,0.01,3.64-0.24,5.41-0.66c3.53-0.84,6.87-2.42,9.87-4.45c3.03-2.05,5.75-4.54,8.23-7.23
				c0.62-0.67,1.23-1.35,1.82-2.05c0.51-0.58,1.1-1.2,1.27-1.98c0.25-1.12-0.65-1.99-1.7-2.04c-0.14-0.06-0.28-0.12-0.41-0.17
				c-0.02-0.14-0.08-0.27-0.24-0.36c-0.72-0.42-1.44-0.85-2.16-1.27c-4.04-3.45-9.2-5.56-14.52-5.84
				c-5.64-0.3-12.01,1.83-15.12,6.81C196.22,251.51,195.89,255.07,196.39,258.42z M260.16,256.43c1.34-3.36,0.93-7.45-1.82-9.98
				c-2.79-2.58-6.98-2.18-10.34-1.08c-3.63,1.18-6.97,3.58-8.63,7.1c-0.01,0.02-0.01,0.04-0.01,0.06c-0.37,0.11-0.57,0.67-0.14,0.91
				c3.66,2.07,7.32,4.46,11.35,5.75c1.9,0.61,3.93,0.93,5.93,0.7c0.9-0.1,1.73-0.34,2.34-1.06
				C259.43,258.14,259.83,257.27,260.16,256.43z M198.29,117c0.09-2.43-0.17-5.11-1.56-7.18c-0.71-1.06-1.69-1.86-2.76-2.52
				c-1.17-0.71-2.43-1.36-3.72-1.82c-2.24-0.8-4.73-0.66-6.92,0.23c-4.47,1.8-6.87,6.2-7.03,10.79c0,0.02-0.01,0.03-0.01,0.04
				c-0.32,2.46-0.6,5.15,0.61,7.42c1.09,2.05,3.23,3.19,5.39,3.77c2.42,0.66,5.17,0.96,7.66,0.59c2.52-0.37,4.64-1.79,6.1-3.86
				C197.58,122.29,198.19,119.61,198.29,117z M168.63,127.91c1.58-1.43,2.15-3.65,1.81-5.72c-0.36-2.25-1.77-4.26-3.42-5.79
				c-1.72-1.6-3.95-2.67-6.3-1.84c-1.13,0.4-2.19,1.03-3.24,1.61c-1.15,0.63-2.29,1.3-3.41,1.98c-8.61,5.29-16.23,12.12-22.49,20.05
				c-6.1,7.75-10.93,16.42-14.6,25.56c-4.03,10.08-6.66,20.71-7.88,31.49c-0.61,5.38-0.89,10.82-0.72,16.24
				c0.16,5.07,0.8,10.23,2.65,14.99c0.45,1.15,0.97,2.28,1.56,3.37c0.19,0.36,0.83,0.3,0.91-0.12c0.08-0.4,0.16-0.81,0.23-1.21
				c0.21-0.09,0.38-0.29,0.33-0.57c-0.04-0.24-0.05-0.48-0.08-0.73c0.03-0.15,0.06-0.3,0.09-0.46c0.04-0.2-0.04-0.35-0.16-0.46
				c-0.08-3.21,1.04-6.36,1.79-9.45c0.46-1.89,0.71-3.78,0.79-5.73c0.1-2.04,0.29-4,0.86-5.98c0.54-1.84,1.22-3.65,1.82-5.48
				c0.58-1.76,1.13-3.54,1.68-5.32c1.11-3.6,2.18-7.2,3.36-10.78c2.36-7.15,5.2-14.14,9.41-20.43c2.16-3.25,4.59-6.32,7.05-9.35
				c2.47-3.06,4.93-6.13,7.59-9.04c5.41-5.91,11.93-10.64,18.21-15.57c0.51-0.41,1.03-0.81,1.55-1.22
				C168.2,128.07,168.43,128.09,168.63,127.91z"/>
			<path style="&st2;" d="M251.04,258.29c1.76,0.54,3.62,0.83,5.46,0.6c1.08-0.13,1.65-0.66,2.16-1.6c0.39-0.7,0.7-1.45,0.91-2.23
				c0.88-3.16,0.03-6.88-2.93-8.65c-2.87-1.71-6.93-0.79-9.82,0.47c-2.79,1.22-5.21,3.24-6.54,6.02
				C243.74,254.88,247.22,257.11,251.04,258.29z M256.5,259.89c-2,0.23-4.03-0.09-5.93-0.7c-4.03-1.29-7.69-3.68-11.35-5.75
				c-0.43-0.24-0.23-0.8,0.14-0.91c0-0.02,0-0.04,0.01-0.06c1.66-3.52,5-5.92,8.63-7.1c3.36-1.1,7.55-1.5,10.34,1.08
				c2.75,2.53,3.16,6.62,1.82,9.98c-0.33,0.84-0.73,1.71-1.32,2.4C258.23,259.55,257.4,259.79,256.5,259.89z"/>
			<path style="&st2;" d="M206.01,266.82c1.63-0.04,3.25-0.26,4.84-0.65c3.16-0.77,6.15-2.14,8.88-3.9c2.73-1.76,5.19-3.9,7.46-6.22
				c1.15-1.18,2.26-2.4,3.32-3.66c0.2-0.24,0.52-0.61,0.66-0.98c-0.2,0.16-0.46,0.22-0.74,0.18c-0.21-0.03-0.34-0.25-0.36-0.45
				c-0.13,0.02-0.27-0.01-0.39-0.15c-0.03-0.04-0.07-0.08-0.1-0.12c-0.39,0.17-0.93-0.24-0.64-0.69c0-0.01,0-0.01,0.01-0.01
				c-0.19-0.2-0.38-0.39-0.58-0.58c-0.81-0.39-1.55-0.91-2.02-1.69c-0.03-0.05-0.05-0.1-0.06-0.15c-4-3.13-9-5-14.09-5.01
				c-5.02-0.02-10.6,1.96-13.33,6.42c-1.67,2.71-1.97,6.01-1.5,9.11c0.44,2.82,1.4,6.25,4.1,7.71
				C202.85,266.72,204.47,266.85,206.01,266.82z M196.39,258.42c-0.5-3.35-0.17-6.91,1.66-9.84c3.11-4.98,9.48-7.11,15.12-6.81
				c5.32,0.28,10.48,2.39,14.52,5.84c0.72,0.42,1.44,0.85,2.16,1.27c0.16,0.09,0.22,0.22,0.24,0.36c0.13,0.05,0.27,0.11,0.41,0.17
				c1.05,0.05,1.95,0.92,1.7,2.04c-0.17,0.78-0.76,1.4-1.27,1.98c-0.59,0.7-1.2,1.38-1.82,2.05c-2.48,2.69-5.2,5.18-8.23,7.23
				c-3,2.03-6.34,3.61-9.87,4.45c-1.77,0.42-3.59,0.67-5.41,0.66c-1.65,0-3.36-0.23-4.81-1.07
				C197.94,265.08,196.85,261.49,196.39,258.42z"/>
			<path style="&st2;" d="M178.17,124.1c1.35,1.88,3.75,2.62,5.92,3c2.33,0.41,4.95,0.66,7.22-0.13c2.11-0.73,3.73-2.44,4.7-4.41
				c1.09-2.2,1.37-4.73,1.27-7.16c-0.09-2.27-0.66-4.61-2.4-6.2c-0.88-0.8-1.95-1.37-3-1.9c-1.09-0.56-2.21-1.06-3.42-1.25
				c-2.13-0.34-4.35,0.19-6.18,1.29c-3.18,1.9-4.86,5.46-5,9.07c0.01,0.05,0.02,0.08,0.01,0.13c-0.01,0.04-0.01,0.08-0.01,0.11
				c-0.02,0.7,0.02,1.4,0.12,2.09c0.04,0.3-0.15,0.52-0.38,0.6C176.96,121.02,177.16,122.71,178.17,124.1z M176.3,116.5
				c0.16-4.59,2.56-8.99,7.03-10.79c2.19-0.89,4.68-1.03,6.92-0.23c1.29,0.46,2.55,1.11,3.72,1.82c1.07,0.66,2.05,1.46,2.76,2.52
				c1.39,2.07,1.65,4.75,1.56,7.18c-0.1,2.61-0.71,5.29-2.24,7.46c-1.46,2.07-3.58,3.49-6.1,3.86c-2.49,0.37-5.24,0.07-7.66-0.59
				c-2.16-0.58-4.3-1.72-5.39-3.77c-1.21-2.27-0.93-4.96-0.61-7.42C176.29,116.53,176.3,116.52,176.3,116.5z"/>
			<path style="&st4;" d="M144.67,106.16c0.64,0,0.64,1,0,1C144.02,107.16,144.02,106.16,144.67,106.16z"/>
			<path style="&st4;" d="M111.72,108.69c0.65,0,0.65,1,0,1C111.08,109.69,111.08,108.69,111.72,108.69z"/>
			<path style="&st2;" d="M112.59,229.85c-0.59-1.09-1.11-2.22-1.56-3.37c-1.85-4.76-2.49-9.92-2.65-14.99
				c-0.17-5.42,0.11-10.86,0.72-16.24c1.22-10.78,3.85-21.41,7.88-31.49c3.67-9.14,8.5-17.81,14.6-25.56
				c6.26-7.93,13.88-14.76,22.49-20.05c1.12-0.68,2.26-1.35,3.41-1.98c1.05-0.58,2.11-1.21,3.24-1.61c2.35-0.83,4.58,0.24,6.3,1.84
				c1.65,1.53,3.06,3.54,3.42,5.79c0.34,2.07-0.23,4.29-1.81,5.72c-0.2,0.18-0.43,0.16-0.61,0.04c-0.52,0.41-1.04,0.81-1.55,1.22
				c-6.28,4.93-12.8,9.66-18.21,15.57c-2.66,2.91-5.12,5.98-7.59,9.04c-2.46,3.03-4.89,6.1-7.05,9.35
				c-4.21,6.29-7.05,13.28-9.41,20.43c-1.18,3.58-2.25,7.18-3.36,10.78c-0.55,1.78-1.1,3.56-1.68,5.32
				c-0.6,1.83-1.28,3.64-1.82,5.48c-0.57,1.98-0.76,3.94-0.86,5.98c-0.08,1.95-0.33,3.84-0.79,5.73c-0.75,3.09-1.87,6.24-1.79,9.45
				c0.12,0.11,0.2,0.26,0.16,0.46c-0.03,0.16-0.06,0.31-0.09,0.46c0.03,0.25,0.04,0.49,0.08,0.73c0.05,0.28-0.12,0.48-0.33,0.57
				c-0.07,0.4-0.15,0.81-0.23,1.21C113.42,230.15,112.78,230.21,112.59,229.85z M109.59,215.21c0.39,4.42,1.33,8.82,3.22,12.84
				c0.05-0.29,0.11-0.57,0.16-0.85c-0.05-0.58-0.08-1.16-0.06-1.75c0.14-3.79,1.66-7.35,2.28-11.06c0.35-2.04,0.25-4.11,0.5-6.16
				c0.23-1.96,0.82-3.84,1.46-5.71c2.46-7.2,4.45-14.56,6.95-21.75c1.23-3.54,2.6-7.03,4.23-10.4c1.68-3.49,3.69-6.79,5.94-9.94
				c2.28-3.18,4.76-6.22,7.23-9.25c2.51-3.09,5.04-6.17,7.82-9.01c2.82-2.88,5.93-5.44,9.08-7.93c3.25-2.57,6.51-5.11,9.77-7.67
				c0.13-0.1,0.27-0.13,0.4-0.11c0.41-0.56,0.69-1.2,0.85-1.9c0.48-2.25-0.5-4.5-1.93-6.21c-1.42-1.71-3.58-3.6-5.99-2.99
				c-1.21,0.31-2.33,1.02-3.42,1.62c-1.06,0.58-2.1,1.18-3.13,1.81c-2.09,1.27-4.13,2.63-6.1,4.07
				c-7.82,5.73-14.56,12.82-20.05,20.79c-5.38,7.81-9.59,16.39-12.71,25.33c-3.48,9.99-5.65,20.43-6.43,30.97
				C109.29,205.02,109.15,210.15,109.59,215.21z"/>
			<path style="&st5;" d="M101.8,200.76c-7.07,2.45-13.11,7.54-17.11,13.84c-4.22,6.64-6.04,14.49-4.88,22.3
				c0.69,4.68,2.2,9.29,4.19,13.57c1.84,3.94,4.2,7.68,7.33,10.71c6.2,5.99,14.88,8.42,23.28,9.06c10.04,0.78,20.07-0.82,30.11-0.66
				c0.35,0,0.5,0.29,0.48,0.55c0.17-0.1,0.41-0.13,0.61,0.04c5.52,4.5,11.47,8.58,17.78,11.9c5.4,2.85,11.26,5.08,17.4,5.51
				c6.16,0.43,12.27-0.98,17.97-3.23c11.7-4.63,21.56-12.75,32.91-18.08c0.38-0.18,0.72,0.13,0.75,0.44
				c6.9,2.63,14.15,4.29,21.51,4.92c6.62,0.56,13.33,0.3,19.88-0.8c3.29-0.56,6.57-1.3,9.72-2.4c3.17-1.1,6.13-2.67,8.92-4.54
				c2.76-1.85,5.33-3.95,7.89-6.07c2.37-1.96,4.92-3.93,6.39-6.7c2.96-5.57,0.85-12.35-0.98-17.92c-0.09-0.28,0.06-0.48,0.27-0.57
				c-0.02-0.1,0-0.21,0.09-0.32c3.48-4.56,6.55-9.47,9.03-14.64c2.09-4.35,3.81-9.26,3.27-14.15c-0.51-4.6-3.37-8.31-7.21-10.73
				c-4.2-2.66-9.16-3.67-13.99-4.57c-5.43-1-10.88-2-16.32-3c-0.63-0.11-0.36-1.07,0.27-0.96c0.05,0.01,0.1,0.02,0.14,0.03
				c-0.23-2.51-0.35-5.02-0.41-7.54c-0.24-10.49,0.65-21.3-2.43-31.49c-2.92-9.67-9.74-17.47-17.19-24.02
				c-14.38-12.66-32.59-20.85-51.55-23.49c-18.65-2.6-37.78,0.52-54.76,8.63c-16.81,8.02-31.51,20.78-41.09,36.83
				c-9.8,16.42-14.4,36.46-9.56,55.24c0.07,0.26-0.06,0.46-0.25,0.55c0.57-0.07,0.8,0.82,0.2,0.97
				C103.56,200.19,102.68,200.45,101.8,200.76z M110.53,270.79c-4.28-0.63-8.51-1.77-12.4-3.68c-3.93-1.93-7.39-4.68-10.11-8.11
				c-2.74-3.44-4.76-7.38-6.34-11.47c-1.79-4.64-3.07-9.55-3.22-14.54c-0.25-7.68,2.47-15.31,7.1-21.39
				c4.59-6.03,11.03-10.63,18.4-12.53c-0.18-0.01-0.35-0.12-0.41-0.35c-0.6-2.32-1.07-4.67-1.39-7.05
				c-1.31-9.48-0.42-19.18,2.15-28.37c2.62-9.37,6.94-18.25,12.53-26.2c5.46-7.74,12.14-14.6,19.63-20.39
				c7.42-5.74,15.64-10.41,24.34-13.89c8.77-3.5,18.04-5.75,27.45-6.61c9.6-0.87,19.32-0.23,28.75,1.77
				c9.49,2.01,18.7,5.41,27.23,10.05c8.52,4.62,16.41,10.5,23.15,17.46c3.5,3.61,6.69,7.58,9.1,12c2.51,4.62,3.99,9.67,4.72,14.86
				c1.5,10.63,0.28,21.41,1.3,32.07c0.01,0.02,0,0.03,0,0.05c5.89,1.07,11.8,2.08,17.67,3.27c4.81,0.98,9.65,2.39,13.56,5.49
				c3.67,2.9,5.87,7.06,5.96,11.76c0.1,5.01-1.82,9.87-4.03,14.28c-2.41,4.77-5.26,9.3-8.5,13.54c-0.07,0.09-0.15,0.14-0.24,0.17
				c2.08,6.34,4.26,14.11-0.02,20.05c-1.88,2.62-4.57,4.61-7.05,6.64c-2.57,2.1-5.2,4.16-8.02,5.93c-5.91,3.71-12.62,5.5-19.47,6.49
				c-13.58,1.95-27.61,0.39-40.41-4.56c-0.07-0.03-0.13-0.07-0.18-0.11c-6.29,3.03-12.15,6.86-18.12,10.46
				c-10.58,6.37-22.51,12.25-35.22,10.42c-6.15-0.88-11.95-3.41-17.32-6.43c-5.65-3.18-11-6.9-16.02-11
				c-0.12-0.1-0.17-0.22-0.17-0.33c-0.06,0.02-0.13,0.04-0.21,0.04c-1.31-0.02-2.62-0.02-3.93,0.01
				C130.71,270.81,120.58,272.26,110.53,270.79z"/>
		</g>
		<g>
		</g>
	</g>
</g>
</svg>
