<?xml version="1.0" encoding="utf-8"?>
<!-- Generator: Adobe Illustrator 25.4.1, SVG Export Plug-In . SVG Version: 6.00 Build 0)  -->
<svg version="1.1" id="Layer_1" xmlns="http://www.w3.org/2000/svg" xmlns:xlink="http://www.w3.org/1999/xlink" x="0px" y="0px"
	 viewBox="0 0 400 400" style="enable-background:new 0 0 400 400;" xml:space="preserve">
<g>
	<g id="XMLID_00000172441499730025706480000004131670375628603266_">
		<g>
			<path style="fill:#7B3F00;" d="M319.7,205c0,1.6-0.2,3.3-0.5,4.9C319.5,208.3,319.7,206.6,319.7,205c0-1.2-0.2-2.3-0.4-3.4
				C319.5,202.7,319.7,203.8,319.7,205z"/>
			<path style="fill:#7B3F00;" d="M317.9,214.3c0.5-1.4,1-2.9,1.3-4.4C318.9,211.4,318.4,212.8,317.9,214.3z"/>
			<path style="fill:#7B3F00;" d="M317.9,214.3L317.9,214.3C317.9,214.3,317.9,214.3,317.9,214.3z"/>
			<path style="fill:#7B3F00;" d="M319,200.8c-0.6-1.9-1.5-3.6-2.8-5.1C317.5,197.1,318.4,198.9,319,200.8z"/>
			<path style="fill:#FCE883;" d="M315.8,196.7c0.4,0.6,0.9,1.2,1.2,1.8C316.6,197.9,316.2,197.2,315.8,196.7z"/>
			<path style="fill:#7B3F00;" d="M316.2,218.1c0.6-1.2,1.2-2.5,1.7-3.8C317.4,215.6,316.9,216.9,316.2,218.1z"/>
			<path style="fill:#FCE883;" d="M314.7,195.4c0.4,0.4,0.7,0.8,1.1,1.2C315.4,196.2,315.1,195.8,314.7,195.4z"/>
			<path style="fill:#7B3F00;" d="M312.8,224.5c0.7-1.1,1.3-2.3,2-3.5C314.1,222.2,313.5,223.4,312.8,224.5z"/>
			<path style="fill:#FCE883;" d="M313.1,194c0.3,0.3,0.7,0.6,1,0.8C313.8,194.6,313.4,194.3,313.1,194z"/>
			<path style="fill:#FCE883;" d="M311.2,225.2c1.5-2.4,2.9-5,4.1-7.6c1-2.1,2-4.4,2.6-6.7c-0.6,2.3-1.5,4.6-2.6,6.7
				C314.1,220.3,312.7,222.8,311.2,225.2z"/>
			<path style="fill:#7B3F00;" d="M312.8,224.5c-0.7,1.1-1.4,2.3-2.1,3.4C311.4,226.8,312.1,225.7,312.8,224.5z"/>
			<path style="fill:#FCE883;" d="M311.2,225.2c-0.8,1.2-1.5,2.4-2.4,3.6C309.7,227.6,310.4,226.4,311.2,225.2z"/>
			<path style="fill:#7B3F00;" d="M308.7,249.6c-0.2,0.7-0.5,1.4-0.9,2C308.1,250.9,308.4,250.3,308.7,249.6z"/>
			<path style="fill:#7B3F00;" d="M307.1,232.9c0,0-0.1,0.1-0.1,0.1v0C307,233,307,232.9,307.1,232.9z"/>
			<path style="fill:#FCE883;" d="M306.3,232.3c-0.1,0.1-0.1,0.2-0.1,0.3C306.2,232.5,306.2,232.4,306.3,232.3z"/>
			<path style="fill:#FCE883;" d="M306.2,232.6L306.2,232.6c0,0-0.1,0-0.1,0.1C306.1,232.7,306.2,232.6,306.2,232.6z"/>
			<path style="fill:#7B3F00;" d="M306.9,253c-0.7,1-1.5,1.9-2.4,2.7C305.4,254.9,306.2,254,306.9,253c0.3-0.5,0.6-0.9,0.9-1.4
				C307.5,252.1,307.3,252.6,306.9,253z"/>
			<path style="fill:#FCE883;" d="M303.9,189.6c0.9,0.2,1.7,0.5,2.5,0.8C305.6,190.1,304.7,189.9,303.9,189.6z"/>
			<path style="fill:#7B3F00;" d="M302.7,257.4c0.6-0.5,1.2-1.1,1.8-1.6C303.9,256.3,303.3,256.9,302.7,257.4z"/>
			<path style="fill:#7B3F00;" d="M300.8,258.9c0.6-0.5,1.3-1,1.9-1.5C302.1,257.9,301.4,258.4,300.8,258.9z"/>
			<path style="fill:#FCE883;" d="M301.8,189.1c-0.6-0.1-1.1-0.2-1.7-0.4C300.7,188.9,301.3,189,301.8,189.1z"/>
			<path style="fill:#FCE883;" d="M300.1,188.8c-0.2,0-0.4-0.1-0.5-0.1C299.8,188.7,300,188.7,300.1,188.8z"/>
			<path style="fill:#FCE883;" d="M298.3,188.4c-0.3-0.1-0.6-0.1-0.9-0.2c-5-0.9-10.1-1.8-15.1-2.8c5,0.9,10.1,1.9,15.1,2.8
				C297.7,188.3,298,188.3,298.3,188.4z"/>
			<path style="fill:#7B3F00;" d="M291.8,265.6c2.5-1.6,4.8-3.3,7.1-5.1C296.6,262.3,294.3,264.1,291.8,265.6
				c-0.7,0.5-1.5,0.9-2.2,1.3C290.4,266.5,291.1,266.1,291.8,265.6z"/>
			<path style="fill:#7B3F00;" d="M289.6,266.9c-3,1.6-6.3,2.8-9.6,3.7C283.3,269.7,286.5,268.5,289.6,266.9z"/>
			<path style="fill:#FCE883;" d="M288.3,266.5c-0.7,0.4-1.5,0.7-2.2,1.1C286.8,267.2,287.6,266.8,288.3,266.5z"/>
			<path style="fill:#FCE883;" d="M284.9,268c-0.4,0.2-0.8,0.3-1.2,0.4c-1.2,0.4-2.4,0.8-3.6,1.1c1.2-0.3,2.4-0.7,3.6-1.1
				C284.1,268.3,284.5,268.1,284.9,268z"/>
			<path style="fill:#FCE883;" d="M282.3,185.4c-0.4-0.1-0.8-0.1-1.1-0.2C281.6,185.3,281.9,185.4,282.3,185.4z"/>
			<path style="fill:#7B3F00;" d="M282.5,184.4C282.5,184.4,282.5,184.4,282.5,184.4C282.5,184.4,282.5,184.4,282.5,184.4
				c-0.3-2.7-0.4-5.3-0.4-8C282.1,179.1,282.3,181.8,282.5,184.4z"/>
			<path style="fill:#FCE883;" d="M281.5,184.2C281.5,184.2,281.5,184.3,281.5,184.2L281.5,184.2
				C281.5,184.3,281.5,184.2,281.5,184.2z"/>
			<path style="fill:#FCE883;" d="M281.4,182.5c0,0.6,0.1,1.1,0.1,1.7C281.4,183.6,281.4,183.1,281.4,182.5z"/>
			<path style="fill:#FCE883;" d="M281.2,185.2C281.1,185.2,281.1,185.2,281.2,185.2L281.2,185.2
				C281.1,185.2,281.1,185.2,281.2,185.2z"/>
			<path style="fill:#FCE883;" d="M281,174.2c0,0.8,0,1.7,0,2.6C281.1,175.9,281.1,175,281,174.2z"/>
			<path style="fill:#FCE883;" d="M281,162.5c0.1,2.9,0.1,5.8,0.1,8.7C281,168.3,281.1,165.4,281,162.5z"/>
			<path style="fill:#FCE883;" d="M280.6,155.2c0.2,2.4,0.4,4.8,0.4,7.2C280.9,160.1,280.8,157.6,280.6,155.2z"/>
			<path style="fill:#FCE883;" d="M280.8,184.6c0-0.1,0-0.1,0.1-0.2C280.8,184.5,280.8,184.5,280.8,184.6z"/>
			<path style="fill:#FCE883;" d="M280.8,184.6c-0.1,0.2,0,0.3,0,0.5C280.7,185,280.7,184.8,280.8,184.6z"/>
			<path style="fill:#7B3F00;" d="M280.5,148.5c0.3,1.3,0.5,2.6,0.7,3.9c1.1,8,0.7,16,0.9,24.1c-0.2-8,0.2-16.1-0.9-24.1
				C281,151.1,280.8,149.8,280.5,148.5z"/>
			<path style="fill:#FCE883;" d="M280.6,155.2c-0.1-0.5-0.1-1-0.2-1.4C280.5,154.3,280.5,154.8,280.6,155.2z"/>
			<path style="fill:#FCE883;" d="M280,150.9c0.2,0.9,0.3,1.9,0.4,2.9C280.3,152.8,280.1,151.9,280,150.9z"/>
			<path style="fill:#FCE883;" d="M279.1,146.7c0.4,1.4,0.7,2.8,0.9,4.2C279.7,149.4,279.4,148.1,279.1,146.7z"/>
			<path style="fill:#7B3F00;" d="M279.2,143.8c-0.4-1.2-0.9-2.4-1.4-3.6C278.3,141.3,278.8,142.5,279.2,143.8z"/>
			<path style="fill:#7B3F00;" d="M280,270.6c-0.8,0.2-1.7,0.4-2.5,0.6C278.3,271,279.1,270.8,280,270.6z"/>
			<path style="fill:#FCE883;" d="M278.7,145.3c0.1,0.5,0.3,0.9,0.4,1.4C278.9,146.2,278.8,145.7,278.7,145.3
				c-0.2-0.6-0.4-1.2-0.6-1.8C278.3,144.1,278.5,144.7,278.7,145.3z"/>
			<path style="fill:#FCE883;" d="M280.1,269.5c-1.6,0.4-3.2,0.8-4.9,1.1C276.9,270.3,278.5,270,280.1,269.5z"/>
			<path style="fill:#FCE883;" d="M274.8,134.6c0.3,0.4,0.5,0.8,0.8,1.2C275.3,135.4,275,135,274.8,134.6z"/>
			<path style="fill:#7B3F00;" d="M273.6,271.9c-0.4,0.1-0.9,0.1-1.3,0.2C272.8,272,273.2,272,273.6,271.9z"/>
			<path style="fill:#FCE883;" d="M270,128.3c0.4,0.5,0.8,0.9,1.2,1.4C270.8,129.2,270.4,128.8,270,128.3z"/>
			<path style="fill:#FCE883;" d="M270.6,130.6c0.4,0.5,0.8,1,1.2,1.5C271.4,131.6,271,131.1,270.6,130.6z"/>
			<path style="fill:#7B3F00;" d="M263.8,272.9c1.4-0.1,2.9-0.1,4.3-0.3C266.7,272.7,265.2,272.8,263.8,272.9z"/>
			<path style="fill:#FCE883;" d="M266.1,124.2c-1.3-1.3-2.6-2.5-4-3.7C263.5,121.7,264.8,122.9,266.1,124.2z"/>
			<path style="fill:#FCE883;" d="M260.6,255c0.1-0.5,0.2-1,0.2-1.4C260.8,254.1,260.7,254.6,260.6,255z"/>
			<path style="fill:#FCE883;" d="M260.8,119.3c-0.9-0.8-1.8-1.5-2.8-2.3C258.9,117.8,259.8,118.5,260.8,119.3z"/>
			<path style="fill:#FCE883;" d="M260.2,256.4c0.2-0.4,0.3-0.9,0.4-1.4C260.5,255.5,260.4,256,260.2,256.4
				c-0.1,0.2-0.2,0.4-0.3,0.6C260,256.9,260.1,256.6,260.2,256.4z"/>
			<path style="fill:#FFFFFF;" d="M259.8,251.3c0,0.1,0,0.3,0.1,0.4C259.8,251.6,259.8,251.4,259.8,251.3z"/>
			<path style="fill:#FFFFFF;" d="M259.2,256.2c0.2-0.4,0.3-0.8,0.4-1.1c0.1-0.4,0.2-0.8,0.2-1.2c-0.1,0.4-0.1,0.8-0.2,1.2
				C259.5,255.4,259.3,255.8,259.2,256.2z"/>
			<path style="fill:#FCE883;" d="M259.6,257.7c-0.2,0.4-0.5,0.8-0.8,1.1c-0.1,0.1-0.2,0.2-0.2,0.2c0.1-0.1,0.2-0.2,0.2-0.2
				C259.1,258.5,259.4,258.1,259.6,257.7z"/>
			<path style="fill:#FFFFFF;" d="M258.9,256.8c-0.1,0.2-0.2,0.4-0.3,0.5c-0.2,0.4-0.4,0.7-0.6,0.9c0.2-0.2,0.4-0.5,0.6-0.9
				C258.8,257.1,258.9,256.9,258.9,256.8z"/>
			<path style="fill:#FFFFFF;" d="M258,258.2c-0.2,0.2-0.5,0.4-0.8,0.5C257.5,258.6,257.8,258.4,258,258.2z"/>
			<path style="fill:#FCE883;" d="M257.5,259.7c0.2-0.1,0.4-0.1,0.6-0.2C257.9,259.6,257.7,259.6,257.5,259.7z"/>
			<path style="fill:#FCE883;" d="M256.8,259.9c0.2,0,0.4-0.1,0.7-0.1C257.3,259.8,257,259.8,256.8,259.9z"/>
			<path style="fill:#FFFFFF;" d="M246.8,246.9c2.9-1.3,6.9-2.2,9.8-0.5c1.8,1.1,2.8,2.9,3.1,4.9c0,0.1,0,0.3,0.1,0.4
				c0.1,0.7,0.1,1.4,0,2.1c-0.1,0.4-0.1,0.8-0.2,1.2c-0.1,0.4-0.2,0.8-0.4,1.1c-0.1,0.2-0.2,0.4-0.2,0.6c-0.1,0.2-0.2,0.4-0.3,0.5
				c-0.2,0.4-0.4,0.6-0.6,0.9c-0.2,0.2-0.5,0.4-0.8,0.5h0c-0.2,0.1-0.5,0.1-0.7,0.2c-0.2,0-0.4,0-0.6,0.1c-0.6,0-1.3,0-1.9-0.1
				c-0.1,0-0.2,0-0.3,0c-0.3,0-0.6-0.1-0.9-0.1c-0.6-0.1-1.1-0.2-1.7-0.4c-2.6-0.8-5-2.1-7.3-3.4c-1.1-0.7-2.3-1.3-3.4-2
				c0.2-0.5,0.5-1,0.9-1.5c0.1-0.1,0.2-0.3,0.3-0.4c0.2-0.3,0.5-0.6,0.7-0.9c0.1-0.1,0.3-0.3,0.4-0.4
				C243.8,248.5,245.2,247.6,246.8,246.9z"/>
			<path style="fill:#FCE883;" d="M256.8,259.9c-0.1,0-0.2,0-0.3,0c-0.8,0.1-1.7,0.1-2.5,0c0.8,0.1,1.7,0.1,2.5,0
				C256.6,259.9,256.7,259.9,256.8,259.9z"/>
			<path style="fill:#FFFFFF;" d="M256.5,258.9c0.3,0,0.5-0.1,0.7-0.2C257,258.8,256.8,258.9,256.5,258.9c-0.2,0-0.4,0-0.6,0.1
				C256.1,258.9,256.3,258.9,256.5,258.9z"/>
			<path style="fill:#FCE883;" d="M253.4,259.8c0.2,0,0.4,0.1,0.6,0.1C253.8,259.9,253.6,259.9,253.4,259.8z"/>
			<path style="fill:#FFFFFF;" d="M254,258.9c-0.1,0-0.2,0-0.3,0C253.7,258.9,253.9,258.9,254,258.9z"/>
			<path style="fill:#FFFFFF;" d="M253.6,258.9c-0.3,0-0.6-0.1-0.9-0.1C253,258.8,253.3,258.8,253.6,258.9z"/>
			<path style="fill:#FCE883;" d="M247.8,258.1c0.6,0.3,1.3,0.6,2,0.8C249.1,258.7,248.5,258.4,247.8,258.1z"/>
			<path style="fill:#FFFFFF;" d="M250.4,244.8c-0.4,0.1-0.8,0.2-1.2,0.3C249.6,244.9,250,244.8,250.4,244.8z"/>
			<path style="fill:#FCE883;" d="M248.6,271c-0.5-0.1-0.9-0.1-1.4-0.2C247.7,270.8,248.2,270.9,248.6,271z"/>
			<path style="fill:#FFFFFF;" d="M242.6,249.7c1.2-1.2,2.7-2.1,4.2-2.8C245.2,247.6,243.8,248.5,242.6,249.7z"/>
			<path style="fill:#FFFFFF;" d="M243,248c0.4-0.3,0.8-0.6,1.1-0.8C243.7,247.5,243.3,247.7,243,248z"/>
			<path style="fill:#FCE883;" d="M242.4,255.3c0.4,0.3,0.9,0.5,1.3,0.8C243.3,255.8,242.8,255.5,242.4,255.3z"/>
			<path style="fill:#FFFFFF;" d="M241.9,249c0.4-0.3,0.7-0.7,1.1-1C242.6,248.3,242.2,248.6,241.9,249z"/>
			<path style="fill:#FFFFFF;" d="M242.2,250.1c0.1-0.1,0.2-0.3,0.4-0.4C242.5,249.8,242.3,250,242.2,250.1z"/>
			<path style="fill:#FFFFFF;" d="M240.3,252.9c1.1,0.7,2.3,1.3,3.4,2C242.6,254.2,241.4,253.6,240.3,252.9z"/>
			<path style="fill:#FFFFFF;" d="M241.1,251.4c0.1-0.2,0.2-0.3,0.3-0.4C241.4,251.1,241.2,251.3,241.1,251.4z"/>
			<path style="fill:#FFFFFF;" d="M239.4,252.5c0.2-0.4,0.4-0.9,0.7-1.3C239.8,251.6,239.6,252,239.4,252.5
				C239.4,252.5,239.4,252.5,239.4,252.5C239.4,252.5,239.4,252.5,239.4,252.5z"/>
			<path style="fill:#FFFFFF;" d="M239.4,252.5L239.4,252.5c-0.1,0-0.1,0.1-0.1,0.1C239.2,252.6,239.3,252.6,239.4,252.5z"/>
			<path style="fill:#FCE883;" d="M239.2,253.4c-0.1,0-0.1-0.1-0.1-0.1C239.1,253.4,239.2,253.4,239.2,253.4
				c0.5,0.2,0.9,0.5,1.4,0.8C240.1,254,239.7,253.7,239.2,253.4z"/>
			<path style="fill:#FFFFFF;" d="M240.3,252.9c1.1,0.7,2.3,1.3,3.4,2c2.4,1.3,4.8,2.6,7.3,3.4c0.5,0.2,1.1,0.3,1.7,0.4
				c0.3,0.1,0.6,0.1,0.9,0.1c0.1,0,0.2,0,0.3,0c0.6,0.1,1.3,0.1,1.9,0.1c0.2,0,0.4,0,0.6-0.1c0.3,0,0.5-0.1,0.7-0.2h0
				c0.3-0.1,0.6-0.3,0.8-0.5c0.2-0.2,0.4-0.5,0.6-0.9c0.1-0.2,0.2-0.4,0.3-0.5c0.1-0.2,0.2-0.4,0.2-0.6c0.2-0.4,0.3-0.8,0.4-1.1
				c0.1-0.4,0.2-0.8,0.2-1.2c0.1-0.7,0.1-1.4,0-2.1c0-0.1,0-0.3-0.1-0.4c-0.3-2-1.3-3.8-3.1-4.9c-2.9-1.7-6.9-0.8-9.8,0.5
				c-1.6,0.7-3,1.6-4.2,2.8c-0.1,0.1-0.3,0.3-0.4,0.4c-0.3,0.3-0.5,0.6-0.7,0.9c-0.1,0.1-0.2,0.3-0.3,0.4
				C240.8,251.9,240.5,252.4,240.3,252.9z M239.1,253.4c-0.2-0.2-0.1-0.6,0.1-0.8c0,0,0.1-0.1,0.1-0.1v0c0,0,0,0,0-0.1
				c0.2-0.4,0.4-0.9,0.7-1.3c0.5-0.8,1.1-1.6,1.8-2.2c0.4-0.3,0.7-0.7,1.1-1c0.4-0.3,0.8-0.6,1.1-0.8c1.2-0.8,2.5-1.4,3.9-1.8
				c0.4-0.1,0.8-0.2,1.2-0.3c0.4-0.1,0.8-0.2,1.2-0.3c2.8-0.5,5.8-0.3,8,1.7c2,1.9,2.8,4.5,2.5,7.1c-0.1,0.5-0.1,1-0.2,1.4
				c0,0,0,0,0,0c-0.1,0.5-0.3,0.9-0.4,1.4c-0.1,0.2-0.2,0.4-0.3,0.6c-0.1,0.2-0.2,0.4-0.3,0.6c-0.2,0.4-0.5,0.8-0.8,1.1
				c-0.1,0.1-0.2,0.2-0.2,0.2c-0.2,0.2-0.3,0.3-0.5,0.4c-0.2,0.1-0.4,0.2-0.6,0.2c-0.2,0.1-0.4,0.1-0.7,0.1c-0.1,0-0.2,0-0.3,0
				c-0.8,0.1-1.7,0.1-2.5,0c-0.2,0-0.4,0-0.6-0.1c-1-0.1-1.9-0.4-2.8-0.6c-0.2-0.1-0.5-0.2-0.8-0.3c-0.7-0.2-1.3-0.5-2-0.8
				c-1.4-0.6-2.8-1.4-4.1-2.1c-0.5-0.2-0.9-0.5-1.3-0.8c-0.6-0.4-1.2-0.7-1.8-1c-0.4-0.3-0.9-0.5-1.4-0.8
				C239.2,253.4,239.1,253.4,239.1,253.4z"/>
			<path style="fill:#FCE883;" d="M232.1,250.4c0.1,0.3,0.2,0.7,0.1,1c0,0.1-0.1,0.2-0.1,0.3c0-0.1,0.1-0.2,0.1-0.3
				C232.3,251.1,232.2,250.7,232.1,250.4z"/>
			<path style="fill:#FCE883;" d="M231.9,252.3c0.1-0.2,0.2-0.4,0.3-0.5C232.1,251.9,232,252.1,231.9,252.3z"/>
			<path style="fill:#7B3F00;" d="M231.8,267.4c0,0,0.1,0.1,0.2,0.1C231.9,267.5,231.9,267.5,231.8,267.4z"/>
			<path style="fill:#FCE883;" d="M231.7,249.9c0.1,0.1,0.1,0.1,0.2,0.2C231.9,250.1,231.8,250,231.7,249.9z"/>
			<path style="fill:#FCE883;" d="M231.9,252.3c-0.1,0.2-0.2,0.3-0.4,0.5C231.6,252.6,231.8,252.4,231.9,252.3z"/>
			<polygon style="fill:#FFFFFF;" points="231.2,251.4 231.2,251.4 231.2,251.4 			"/>
			<path style="fill:#FFFFFF;" d="M231.2,251.4L231.2,251.4C231.2,251.4,231.1,251.4,231.2,251.4
				C231.1,251.4,231.2,251.4,231.2,251.4z"/>
			<path style="fill:#FFFFFF;" d="M231.2,251.4C231.2,251.4,231.2,251.4,231.2,251.4C231.2,251.4,231.2,251.4,231.2,251.4z"/>
			<path style="fill:#FFFFFF;" d="M231.1,251.5c-0.1,0.2-0.3,0.5-0.5,0.7C230.8,252,231,251.7,231.1,251.5z"/>
			<path style="fill:#FFFFFF;" d="M230.9,251.6c0.1,0,0.1,0,0.1-0.1C231,251.5,230.9,251.5,230.9,251.6z"/>
			<path style="fill:#FCE883;" d="M230.9,253.4c-0.3,0.3-0.6,0.7-0.9,1C230.3,254.1,230.6,253.8,230.9,253.4
				c0.1-0.2,0.2-0.3,0.4-0.4C231.2,253.1,231.1,253.3,230.9,253.4z"/>
			<path style="fill:#FFFFFF;" d="M230.8,249.4C230.8,249.4,230.8,249.4,230.8,249.4C230.8,249.4,230.8,249.4,230.8,249.4z"/>
			<path style="fill:#FFFFFF;" d="M230.5,249.4c0.1,0,0.2,0,0.3,0C230.7,249.4,230.6,249.4,230.5,249.4z"/>
			<path style="fill:#FFFFFF;" d="M230.1,251.1c0,0.1,0,0.1,0,0.1C230.1,251.2,230.1,251.2,230.1,251.1L230.1,251.1z"/>
			<path style="fill:#FFFFFF;" d="M229.8,251.1C229.8,251.1,229.8,251.1,229.8,251.1C229.8,251.1,229.8,251.1,229.8,251.1z"/>
			<path style="fill:#FFFFFF;" d="M229.7,251C229.7,251,229.7,251,229.7,251C229.7,251.1,229.7,251,229.7,251z"/>
			<path style="fill:#FFFFFF;" d="M229.6,250.9c0,0,0.1,0.1,0.1,0.1h0C229.6,250.9,229.6,250.9,229.6,250.9z"/>
			<path style="fill:#FCE883;" d="M229.1,255.5c-0.3,0.3-0.6,0.7-0.9,1C228.5,256.1,228.8,255.8,229.1,255.5z"/>
			<path style="fill:#FFFFFF;" d="M227.2,256c1.1-1.1,2.2-2.3,3.2-3.5C229.4,253.8,228.3,254.9,227.2,256c-0.3,0.3-0.6,0.6-0.9,0.9
				C226.6,256.6,226.9,256.3,227.2,256z"/>
			<path style="fill:#FFFFFF;" d="M228.4,249.6C228.4,249.6,228.4,249.6,228.4,249.6C228.4,249.6,228.4,249.6,228.4,249.6
				L228.4,249.6z"/>
			<path style="fill:#FCE883;" d="M228.2,256.5c-0.3,0.3-0.6,0.7-1,1C227.5,257.1,227.8,256.8,228.2,256.5z"/>
			<path style="fill:#FFFFFF;" d="M226.3,256.9c-0.3,0.3-0.6,0.6-0.9,0.8C225.8,257.5,226,257.2,226.3,256.9z"/>
			<path style="fill:#FCE883;" d="M225.2,259.3c-0.3,0.3-0.7,0.6-1,0.9C224.5,259.9,224.9,259.6,225.2,259.3z"/>
			<path style="fill:#FCE883;" d="M223.8,244.9c0.4,0.2,0.9,0.5,1.3,0.8C224.7,245.4,224.3,245.2,223.8,244.9z"/>
			<path style="fill:#FCE883;" d="M219.1,242.8c0.3,0.1,0.6,0.2,0.9,0.3C219.7,243,219.4,242.9,219.1,242.8z"/>
			<path style="fill:#FFFFFF;" d="M210.9,266.2c2.8-0.7,5.4-1.8,7.8-3.3C216.2,264.4,213.6,265.5,210.9,266.2
				c-0.8,0.2-1.6,0.3-2.4,0.5C209.3,266.5,210.1,266.4,210.9,266.2z"/>
			<path style="fill:#FFFFFF;" d="M214.1,242.8c-0.6-0.1-1.3-0.1-1.9-0.1C212.8,242.7,213.5,242.8,214.1,242.8z"/>
			<path style="fill:#FFFFFF;" d="M209.3,242.9c1-0.1,1.9-0.2,2.9-0.2c0.6,0,1.3,0,1.9,0.1c4.4,0.4,8.7,2.2,12.2,4.9
				c0,0.1,0,0.1,0.1,0.1c0.5,0.8,1.2,1.3,2,1.7c0,0,0,0,0,0c0.2,0.2,0.4,0.4,0.6,0.6c0,0,0,0,0,0c-0.3,0.5,0.2,0.9,0.6,0.7
				c0,0,0.1,0.1,0.1,0.1h0c0,0,0,0.1,0.1,0.1c0,0,0,0,0,0c0,0,0,0,0.1,0.1c0.1,0,0.2,0,0.2,0c0,0.1,0,0.1,0,0.1
				c0.1,0.2,0.2,0.3,0.3,0.3c0.2,0,0.3,0,0.5,0c0.1,0,0.1,0,0.1-0.1c0,0,0.1,0,0.1-0.1c0,0,0,0,0,0c0,0,0,0,0,0c0,0,0,0,0,0.1
				c-0.1,0.2-0.3,0.5-0.5,0.7c-0.1,0.1-0.1,0.1-0.2,0.2c0,0.1-0.1,0.1-0.1,0.2c-1,1.2-2.1,2.4-3.2,3.5c-0.3,0.3-0.6,0.6-0.9,0.9h0
				c-0.3,0.3-0.6,0.6-0.9,0.8c-1.8,1.7-3.7,3.2-5.7,4.5c-0.3,0.2-0.7,0.4-1,0.6c-2.4,1.4-5.1,2.6-7.8,3.3c-0.8,0.2-1.6,0.3-2.4,0.5
				c-0.8,0.1-1.6,0.2-2.4,0.2c-0.8,0-1.7,0-2.5-0.2c0,0,0,0,0,0c-0.3-0.1-0.7-0.1-1-0.3h0c-0.3-0.1-0.7-0.2-1-0.4c0,0,0,0,0,0
				c-0.3-0.2-0.6-0.4-0.9-0.6c-0.1-0.1-0.3-0.2-0.4-0.4c-0.1-0.1-0.1-0.1-0.2-0.2c-0.7-0.8-1.2-1.7-1.6-2.7
				c-0.1-0.2-0.2-0.5-0.3-0.7c-0.1-0.3-0.2-0.6-0.3-0.9c-0.2-0.7-0.3-1.5-0.4-2.2c-0.1-0.6-0.2-1.3-0.2-1.9c-0.1-2.5,0.4-5,1.7-7.2
				c0.3-0.6,0.7-1.1,1.2-1.6c0.2-0.2,0.4-0.5,0.7-0.7c0.7-0.7,1.5-1.2,2.3-1.7c1.1-0.7,2.3-1.2,3.5-1.6c0.6-0.2,1.2-0.4,1.9-0.5
				C208.7,243.1,209,243,209.3,242.9z"/>
			<path style="fill:#FCE883;" d="M210.1,96.8c1.5,0.2,3,0.4,4.4,0.7C213,97.2,211.6,97,210.1,96.8z"/>
			<path style="fill:#7B3F00;" d="M211.9,278.9c-0.6,0.3-1.2,0.7-1.8,1C210.7,279.6,211.3,279.3,211.9,278.9z"/>
			<path style="fill:#FCE883;" d="M208.5,279.8c5.1-2.9,10.1-6.1,15.1-9.1C218.5,273.7,213.6,276.9,208.5,279.8z"/>
			<path style="fill:#FCE883;" d="M209,267.5c0.2,0,0.4-0.1,0.7-0.1C209.5,267.5,209.3,267.5,209,267.5z"/>
			<path style="fill:#FFFFFF;" d="M209.3,242.9c-0.3,0.1-0.6,0.1-1,0.2C208.7,243.1,209,243,209.3,242.9z"/>
			<path style="fill:#FCE883;" d="M209,267.5C209,267.6,209,267.6,209,267.5C209,267.5,209,267.5,209,267.5z"/>
			<path style="fill:#FCE883;" d="M207.7,267.7c0.4,0,0.9-0.1,1.3-0.2C208.6,267.6,208.1,267.7,207.7,267.7z"/>
			<path style="fill:#FCE883;" d="M207.7,267.7C207.7,267.7,207.7,267.7,207.7,267.7C207.7,267.7,207.7,267.7,207.7,267.7z"/>
			<path style="fill:#FCE883;" d="M206.4,280.9c0.7-0.4,1.4-0.7,2.1-1.1C207.8,280.1,207.1,280.5,206.4,280.9z"/>
			<path style="fill:#FFFFFF;" d="M208.4,243.1c-0.6,0.1-1.3,0.3-1.9,0.5C207.1,243.4,207.7,243.2,208.4,243.1z"/>
			<path style="fill:#FFFFFF;" d="M203.5,266.7c0.8,0.1,1.7,0.2,2.5,0.2C205.2,266.8,204.3,266.8,203.5,266.7z"/>
			<path style="fill:#FFFFFF;" d="M202.9,245.2c1.1-0.7,2.3-1.2,3.5-1.6C205.2,244,204.1,244.5,202.9,245.2z"/>
			<path style="fill:#FCE883;" d="M205.6,267.8c-0.8,0-1.7-0.1-2.5-0.2C203.9,267.8,204.8,267.8,205.6,267.8c0.7,0,1.4,0,2-0.1
				C207,267.8,206.3,267.8,205.6,267.8z"/>
			<path style="fill:#FCE883;" d="M204.3,282c-0.7,0.3-1.4,0.7-2.1,1C202.9,282.6,203.6,282.3,204.3,282z"/>
			<path style="fill:#FFFFFF;" d="M202.4,266.4c0.3,0.1,0.7,0.2,1,0.3C203.1,266.6,202.8,266.5,202.4,266.4z"/>
			<path style="fill:#FFFFFF;" d="M201.5,266c0.3,0.2,0.6,0.3,1,0.4C202.1,266.3,201.8,266.2,201.5,266z"/>
			<path style="fill:#FCE883;" d="M209.4,96.7c-7-0.9-14.1-1.1-21.2-0.5c-0.6,0-1.2,0.1-1.8,0.2c0.6-0.1,1.2-0.1,1.8-0.2
				C195.3,95.6,202.4,95.8,209.4,96.7z"/>
			<path style="fill:#FFFFFF;" d="M200.7,246.9c-0.2,0.2-0.4,0.4-0.7,0.7C200.2,247.4,200.4,247.1,200.7,246.9z"/>
			<path style="fill:#FFFFFF;" d="M200.1,265c0.1,0.1,0.3,0.3,0.4,0.4C200.4,265.2,200.3,265.1,200.1,265z"/>
			<path style="fill:#FFFFFF;" d="M199.8,266c0.3,0.3,0.6,0.5,1,0.7C200.4,266.5,200.1,266.3,199.8,266z"/>
			<path style="fill:#FFFFFF;" d="M200,246.2c-0.5,0.5-0.9,1-1.3,1.5C199,247.2,199.5,246.7,200,246.2z"/>
			<path style="fill:#FFFFFF;" d="M198.4,262.1c0.4,1,0.9,1.9,1.6,2.7C199.3,264,198.7,263.1,198.4,262.1z"/>
			<path style="fill:#FCE883;" d="M198.2,114.1c-0.1-0.4-0.1-0.8-0.2-1.2C198.1,113.3,198.1,113.7,198.2,114.1z"/>
			<path style="fill:#FCE883;" d="M198,112.8c-0.1-0.3-0.1-0.5-0.2-0.8C197.9,112.3,197.9,112.6,198,112.8z"/>
			<path style="fill:#FFFFFF;" d="M197.8,260.5c0.1,0.3,0.2,0.6,0.3,0.9C198,261.1,197.9,260.8,197.8,260.5z"/>
			<path style="fill:#FCE883;" d="M197.5,111.3c0.1,0.3,0.2,0.5,0.3,0.8C197.7,111.8,197.6,111.5,197.5,111.3z"/>
			<path style="fill:#FCE883;" d="M197.1,110.5c0.1,0.2,0.2,0.5,0.4,0.7C197.4,111,197.3,110.8,197.1,110.5z"/>
			<path style="fill:#FFFFFF;" d="M197.4,258.3c0.1,0.7,0.2,1.5,0.4,2.2C197.6,259.7,197.5,259,197.4,258.3
				c-0.1-0.6-0.2-1.3-0.2-1.9C197.2,257,197.3,257.6,197.4,258.3z"/>
			<path style="fill:#FFFFFF;" d="M197.4,258.3c0.1,0.7,0.2,1.5,0.5,2.2c0.1,0.3,0.2,0.6,0.3,0.9c0.1,0.2,0.2,0.5,0.3,0.7
				c0.4,1,0.9,1.9,1.6,2.7c0.1,0.1,0.1,0.1,0.2,0.2c0.1,0.1,0.3,0.3,0.4,0.4c0.3,0.2,0.6,0.4,0.9,0.6c0,0,0,0,0,0
				c0.3,0.2,0.6,0.3,1,0.4h0c0.3,0.1,0.7,0.2,1,0.3c0,0,0,0,0,0c0.8,0.1,1.7,0.2,2.5,0.2c0.8,0,1.6-0.1,2.4-0.2
				c0.8-0.1,1.6-0.3,2.4-0.5c2.8-0.7,5.4-1.8,7.8-3.3c0.3-0.2,0.7-0.4,1-0.6c2.1-1.3,3.9-2.9,5.7-4.5c0.3-0.3,0.6-0.5,0.9-0.8h0
				c0.3-0.3,0.6-0.6,0.9-0.9c1.1-1.1,2.2-2.3,3.2-3.5c0-0.1,0.1-0.1,0.1-0.2c0.1-0.1,0.1-0.1,0.2-0.2c0.2-0.2,0.4-0.4,0.5-0.7
				c0,0,0,0,0-0.1c0,0,0,0,0,0l0,0h0c0,0,0,0,0,0c0,0-0.1,0-0.1,0.1c0,0-0.1,0-0.1,0.1c-0.1,0.1-0.3,0.1-0.5,0
				c-0.2,0-0.3-0.1-0.3-0.3c0,0,0-0.1,0-0.1h0c-0.1,0-0.2,0-0.2,0c0,0-0.1,0-0.1-0.1c0,0,0,0,0,0c0,0,0-0.1-0.1-0.1
				c0,0-0.1-0.1-0.1-0.1c-0.4,0.2-0.9-0.2-0.6-0.7c0,0,0,0,0,0c-0.2-0.2-0.4-0.4-0.6-0.6c0,0,0,0,0,0h0c-0.8-0.4-1.5-0.9-2-1.7
				c0,0-0.1-0.1-0.1-0.1c-3.5-2.7-7.8-4.5-12.2-4.9c-0.6-0.1-1.3-0.1-1.9-0.1c-0.9,0-1.9,0.1-2.9,0.2c-0.3,0-0.6,0.1-1,0.2
				c-0.6,0.1-1.3,0.3-1.9,0.5c-1.2,0.4-2.4,0.9-3.5,1.6c-0.8,0.5-1.6,1.1-2.3,1.7c-0.2,0.2-0.4,0.4-0.7,0.7c-0.4,0.5-0.8,1-1.2,1.6
				c-1.3,2.1-1.8,4.7-1.7,7.2C197.2,257,197.3,257.6,197.4,258.3z M199.8,266c-2.1-1.9-3-4.9-3.4-7.6c-0.2-1.5-0.3-3-0.1-4.5
				c0-0.1,0-0.1,0-0.2c0.1-0.5,0.2-1,0.3-1.5c0-0.1,0.1-0.3,0.1-0.4c0.1-0.4,0.2-0.9,0.4-1.3c0.2-0.6,0.6-1.3,0.9-1.9
				c0.2-0.3,0.4-0.6,0.6-0.9c0.4-0.5,0.9-1.1,1.3-1.5c3.4-3.3,8.6-4.7,13.2-4.4c2,0.1,4,0.5,5.9,1.1c0.3,0.1,0.6,0.2,0.9,0.3
				c1.3,0.5,2.6,1.1,3.9,1.8c0.4,0.2,0.9,0.5,1.3,0.8c0.9,0.6,1.8,1.2,2.6,1.9c0.7,0.4,1.4,0.9,2.2,1.3c0.2,0.1,0.2,0.2,0.2,0.4
				c0.1,0,0.3,0.1,0.4,0.2c0.1,0,0.2,0,0.3,0c0,0,0,0,0.1,0c0.3,0.1,0.6,0.2,0.9,0.4c0.1,0.1,0.1,0.1,0.2,0.2
				c0.1,0.1,0.1,0.2,0.2,0.3c0.1,0.3,0.2,0.6,0.1,1c0,0.1-0.1,0.2-0.1,0.3c-0.1,0.2-0.2,0.4-0.3,0.5c-0.1,0.2-0.2,0.3-0.4,0.5
				c-0.1,0.1-0.1,0.2-0.2,0.2c-0.1,0.1-0.3,0.3-0.4,0.4c-0.3,0.4-0.6,0.7-0.9,1c-0.3,0.3-0.6,0.7-0.9,1v0c-0.3,0.3-0.6,0.7-0.9,1v0
				c-0.3,0.3-0.6,0.7-1,1c-0.6,0.6-1.3,1.3-2,1.9c-0.3,0.3-0.7,0.6-1,0.9c-1.1,0.9-2.1,1.7-3.3,2.5c-3,2-6.3,3.6-9.9,4.5
				c-0.4,0.1-0.9,0.2-1.3,0.3c-0.2,0-0.4,0.1-0.7,0.1c0,0,0,0,0,0c-0.4,0.1-0.9,0.1-1.3,0.2c0,0-0.1,0-0.1,0c-0.7,0.1-1.4,0.1-2,0.1
				c-0.8,0-1.7-0.1-2.5-0.2c-0.8-0.2-1.6-0.4-2.3-0.9C200.4,266.5,200.1,266.3,199.8,266L199.8,266z"/>
			<path style="fill:#FFFFFF;" d="M197.1,250.5c-0.2,0.4-0.3,0.9-0.4,1.3C196.8,251.3,196.9,250.9,197.1,250.5z"/>
			<path style="fill:#FFFFFF;" d="M197,119.5c-0.1,0.5-0.2,1-0.4,1.6C196.8,120.6,196.9,120,197,119.5z"/>
			<path style="fill:#FFFFFF;" d="M197,119.5c0.2-1.3,0.3-2.8,0.3-4.1c0-1.1-0.2-2.2-0.6-3.3c0.4,1,0.5,2.2,0.6,3.3
				C197.4,116.8,197.3,118.2,197,119.5z"/>
			<path style="fill:#FFFFFF;" d="M196.1,109.1c0.1,0.1,0.2,0.2,0.3,0.3C196.4,109.3,196.2,109.2,196.1,109.1z"/>
			<path style="fill:#FFFFFF;" d="M196.6,252.2c-0.1,0.5-0.2,1-0.3,1.5C196.4,253.2,196.4,252.7,196.6,252.2z"/>
			<path style="fill:#FFFFFF;" d="M196.4,258.4c0.4,2.7,1.3,5.8,3.4,7.6C197.7,264.2,196.8,261.1,196.4,258.4
				c-0.2-1.5-0.3-3-0.1-4.5C196.1,255.4,196.2,256.9,196.4,258.4z"/>
			<path style="fill:#FFFFFF;" d="M195.8,108.7c0.1,0.1,0.2,0.2,0.3,0.3C196,108.9,195.9,108.8,195.8,108.7z"/>
			<path style="fill:#FFFFFF;" d="M195.5,109.8c0.4,0.4,0.6,0.9,0.9,1.4C196.1,110.8,195.9,110.3,195.5,109.8z"/>
			<path style="fill:#FFFFFF;" d="M195.8,108.7C195.8,108.7,195.8,108.7,195.8,108.7C195.8,108.7,195.8,108.7,195.8,108.7z"/>
			<path style="fill:#FCE883;" d="M195.5,125.2c-0.2,0.2-0.4,0.5-0.6,0.7C195.1,125.7,195.3,125.4,195.5,125.2z"/>
			<path style="fill:#FFFFFF;" d="M195.2,109.5c0.1,0.1,0.2,0.2,0.3,0.3C195.4,109.7,195.3,109.6,195.2,109.5z"/>
			<path style="fill:#FFFFFF;" d="M196,122.6c-0.5,1-1.1,1.9-1.9,2.7C194.9,124.5,195.5,123.5,196,122.6c0.2-0.5,0.4-1,0.6-1.5
				C196.5,121.6,196.3,122.1,196,122.6z"/>
			<path style="fill:#FFFFFF;" d="M194,107.3c0.3,0.2,0.5,0.3,0.8,0.5C194.5,107.6,194.2,107.5,194,107.3
				C194,107.3,194,107.3,194,107.3L194,107.3z"/>
			<path style="fill:#FFFFFF;" d="M193.1,106.8c0.3,0.2,0.6,0.3,0.9,0.5C193.7,107.1,193.4,106.9,193.1,106.8z"/>
			<path style="fill:#FCE883;" d="M192.2,286.5c1-0.2,1.9-0.5,2.9-0.8C194.2,286,193.2,286.3,192.2,286.5z"/>
			<path style="fill:#FCE883;" d="M190.6,286.9c0.5-0.1,1.1-0.2,1.6-0.4C191.7,286.6,191.1,286.8,190.6,286.9z"/>
			<path style="fill:#FCE883;" d="M189.9,128.3c0.3-0.1,0.6-0.1,0.9-0.2C190.6,128.2,190.3,128.3,189.9,128.3
				c-0.6,0.1-1.1,0.1-1.7,0.1C188.8,128.4,189.4,128.4,189.9,128.3z"/>
			<path style="fill:#F4F4F4;" d="M190.1,127.3c-0.1,0-0.3,0-0.4,0.1C189.8,127.3,189.9,127.3,190.1,127.3z"/>
			<path style="fill:#FFFFFF;" d="M182.3,107.3c1.8-1.1,4.1-1.6,6.2-1.3c1.2,0.2,2.3,0.7,3.4,1.2c1,0.5,2.1,1.1,3,1.9
				c0.1,0.1,0.2,0.2,0.3,0.3c0.1,0.1,0.2,0.2,0.3,0.3c0,0,0,0,0,0c0.4,0.4,0.6,0.9,0.9,1.4c0.1,0.3,0.2,0.6,0.3,0.9
				c0.4,1,0.5,2.2,0.6,3.3c0.1,1.4,0,2.8-0.3,4.1c-0.1,0.5-0.2,1-0.4,1.6v0c-0.2,0.5-0.4,1-0.6,1.5c-0.5,1-1.1,1.9-1.9,2.7
				c-0.8,0.8-1.7,1.4-2.8,1.7c-0.4,0.1-0.8,0.2-1.2,0.3c-0.1,0-0.3,0-0.4,0.1c-1.3,0.2-2.6,0.1-3.9,0c-0.6-0.1-1.1-0.2-1.7-0.2
				c-0.3,0-0.6-0.1-0.8-0.2c-0.2-0.1-0.4-0.1-0.6-0.2c-0.1,0-0.3-0.1-0.5-0.1c-0.2-0.1-0.4-0.1-0.6-0.2c0,0,0,0,0,0
				c-0.3-0.1-0.5-0.2-0.8-0.3c-0.3-0.1-0.6-0.3-0.9-0.5c-0.2-0.1-0.4-0.2-0.6-0.4c-0.2-0.2-0.4-0.3-0.6-0.6
				c-0.1-0.1-0.2-0.2-0.3-0.3c0,0,0,0,0,0c-0.1-0.1-0.2-0.2-0.3-0.3v0c-0.1-0.2-0.2-0.3-0.3-0.5c-0.1-0.2-0.2-0.3-0.3-0.5
				c-0.1-0.3-0.3-0.7-0.4-1c-0.2-0.9-0.3-1.8-0.2-2.7c0.2-0.1,0.4-0.3,0.4-0.6c0-0.3-0.1-0.5-0.1-0.8c0-0.4-0.1-0.9,0-1.3
				c0,0,0-0.1,0-0.1c0-0.1,0-0.1,0-0.1c0.1-1.4,0.3-2.7,0.8-4c0.1-0.2,0.2-0.4,0.3-0.6c0,0,0,0,0,0c0.1-0.2,0.2-0.4,0.3-0.6v0
				c0.1-0.2,0.2-0.4,0.3-0.6C179.8,109.3,180.9,108.2,182.3,107.3z"/>
			<path style="fill:#FFFFFF;" d="M188.5,105.1c-1.1-0.2-2.2-0.1-3.3,0.1C186.3,104.9,187.4,104.9,188.5,105.1z"/>
			<path style="fill:#FCE883;" d="M185.1,128.3c0.4,0.1,0.7,0.1,1.1,0.1C185.8,128.4,185.5,128.4,185.1,128.3z"/>
			<path style="fill:#FCE883;" d="M183.6,128c0.4,0.1,0.8,0.2,1.2,0.2C184.4,128.2,184,128.1,183.6,128z"/>
			<path style="fill:#FFFFFF;" d="M185.2,105.2c-0.5,0.1-1,0.2-1.4,0.4C184.2,105.4,184.7,105.2,185.2,105.2z"/>
			<path style="fill:#FCE883;" d="M182.3,127.7c0.4,0.1,0.9,0.2,1.3,0.3C183.1,128,182.7,127.8,182.3,127.7c-0.2,0-0.4-0.1-0.6-0.2
				C181.9,127.6,182.1,127.7,182.3,127.7z"/>
			<path style="fill:#FFFFFF;" d="M183.2,126.9c0.3,0.1,0.6,0.1,0.8,0.2c0.5,0.1,1.1,0.2,1.7,0.2c-0.6-0.1-1.1-0.2-1.6-0.2
				C183.8,127.1,183.5,127,183.2,126.9z"/>
			<path style="fill:#FFFFFF;" d="M182.6,126.8c0.2,0,0.4,0.1,0.6,0.2C183.1,126.9,182.9,126.8,182.6,126.8z"/>
			<path style="fill:#7B3F00;" d="M210.1,279.9c-9.7,5.5-20.4,10-31.7,8.4c-0.4-0.1-0.8-0.1-1.2-0.2c0.4,0.1,0.8,0.1,1.2,0.2
				C189.8,289.9,200.5,285.4,210.1,279.9z"/>
			<path style="fill:#FFFFFF;" d="M182.2,126.7c-0.2-0.1-0.4-0.1-0.6-0.2C181.8,126.6,182,126.6,182.2,126.7z"/>
			<path style="fill:#FFFFFF;" d="M180.8,126.2c0.2,0.1,0.5,0.2,0.8,0.3C181.3,126.4,181.1,126.3,180.8,126.2z"/>
			<path style="fill:#FCE883;" d="M179.5,97.4c1.2-0.2,2.3-0.4,3.5-0.6C181.8,97,180.6,97.2,179.5,97.4z"/>
			<path style="fill:#FFFFFF;" d="M179.9,125.7c-0.2-0.1-0.4-0.2-0.6-0.4C179.5,125.4,179.7,125.6,179.9,125.7z"/>
			<path style="fill:#FFFFFF;" d="M178.7,124.8c0.2,0.2,0.4,0.4,0.6,0.6C179.1,125.1,178.9,124.9,178.7,124.8z"/>
			<path style="fill:#F4F4F4;" d="M179,110.7c-0.1,0.2-0.2,0.4-0.3,0.6C178.7,111,178.9,110.8,179,110.7z"/>
			<path style="fill:#FFFFFF;" d="M178.4,124.4c0.1,0.1,0.2,0.2,0.3,0.3C178.6,124.7,178.5,124.6,178.4,124.4z"/>
			<path style="fill:#F4F4F4;" d="M178.3,111.8c0.1-0.2,0.2-0.4,0.3-0.6C178.5,111.4,178.4,111.6,178.3,111.8z"/>
			<path style="fill:#FFFFFF;" d="M178.2,124.1c0.1,0.1,0.2,0.2,0.3,0.3C178.3,124.3,178.2,124.2,178.2,124.1z"/>
			<path style="fill:#F4F4F4;" d="M178.1,112.4c0.1-0.2,0.2-0.4,0.3-0.6C178.2,112,178.2,112.2,178.1,112.4z"/>
			<path style="fill:#FFFFFF;" d="M177.9,123.6c0.1,0.2,0.2,0.3,0.3,0.5C178.1,123.9,177.9,123.8,177.9,123.6z"/>
			<path style="fill:#F4F4F4;" d="M177.6,123.1c-0.1-0.3-0.3-0.7-0.4-1C177.3,122.4,177.5,122.8,177.6,123.1z"/>
			<path style="fill:#FFFFFF;" d="M177.3,117.9c0,0.3,0,0.5,0.1,0.8C177.4,118.5,177.3,118.2,177.3,117.9z"/>
			<path style="fill:#FFFFFF;" d="M176.9,124c0.3,0.5,0.6,1,1,1.4C177.5,124.9,177.2,124.5,176.9,124z"/>
			<path style="fill:#FFFFFF;" d="M176.5,123c0.1,0.3,0.3,0.7,0.4,1C176.7,123.6,176.6,123.3,176.5,123z"/>
			<path style="fill:#FFFFFF;" d="M176.6,113.9c-0.1,0.6-0.2,1.1-0.3,1.7C176.4,115.1,176.5,114.5,176.6,113.9z"/>
			<path style="fill:#FCE883;" d="M176.4,286.9c-0.4-0.1-0.7-0.2-1.1-0.3C175.7,286.8,176.1,286.9,176.4,286.9z"/>
			<path style="fill:#FFFFFF;" d="M176.3,116.5c0-0.3,0-0.6,0.1-0.9C176.3,115.9,176.3,116.2,176.3,116.5
				C176.3,116.5,176.3,116.5,176.3,116.5C176.3,116.5,176.3,116.5,176.3,116.5z"/>
			<path style="fill:#FFFFFF;" d="M177.3,116.5c0,0,0,0.1,0,0.1c0,0.4,0,0.9,0,1.3c0,0.3,0,0.5,0.1,0.8c0,0.3-0.1,0.5-0.4,0.6
				c0,0.9,0,1.9,0.2,2.7c0.1,0.4,0.2,0.7,0.4,1c0.1,0.2,0.2,0.3,0.3,0.5c0.1,0.2,0.2,0.3,0.3,0.5v0c0.1,0.1,0.2,0.2,0.3,0.3
				c0,0,0,0,0,0c0.1,0.1,0.2,0.2,0.3,0.3c0.2,0.2,0.4,0.4,0.6,0.6c0.2,0.1,0.4,0.3,0.6,0.4c0.3,0.2,0.6,0.3,0.9,0.5
				c0.2,0.1,0.5,0.2,0.8,0.3c0,0,0,0,0,0c0.2,0.1,0.4,0.1,0.6,0.2c0.1,0,0.3,0.1,0.5,0.1c0.2,0.1,0.4,0.1,0.6,0.2
				c0.3,0.1,0.6,0.1,0.9,0.2c0.5,0.1,1.1,0.2,1.6,0.2c1.3,0.2,2.6,0.2,3.9,0c0.1,0,0.3-0.1,0.4-0.1c0.4-0.1,0.9-0.2,1.2-0.3
				c1.1-0.4,2-1,2.8-1.7c0.8-0.8,1.4-1.7,1.9-2.7c0.2-0.5,0.4-1,0.6-1.5v0c0.2-0.5,0.3-1,0.4-1.6c0.3-1.3,0.3-2.7,0.3-4.1
				c0-1.1-0.2-2.2-0.6-3.3c-0.1-0.3-0.2-0.6-0.3-0.9c-0.2-0.5-0.5-1-0.9-1.4c0,0,0,0,0,0c-0.1-0.1-0.2-0.2-0.3-0.3
				c-0.1-0.1-0.2-0.2-0.3-0.3c-0.9-0.8-2-1.4-3-1.9c-1.1-0.6-2.2-1.1-3.4-1.2c-2.1-0.3-4.4,0.2-6.2,1.3c-1.4,0.8-2.5,2-3.3,3.3
				c-0.1,0.2-0.2,0.4-0.3,0.6v0c-0.1,0.2-0.2,0.4-0.3,0.6c0,0,0,0,0,0c-0.1,0.2-0.2,0.4-0.3,0.6c-0.5,1.3-0.8,2.6-0.8,4
				C177.3,116.5,177.3,116.5,177.3,116.5z M176.4,115.6c0.1-0.6,0.1-1.1,0.3-1.7c0.8-3.6,3.1-6.8,6.7-8.2c0.1-0.1,0.3-0.1,0.5-0.2
				c0.5-0.2,0.9-0.3,1.4-0.4c0,0,0,0,0,0c1.1-0.2,2.2-0.3,3.3-0.1c0.6,0.1,1.2,0.2,1.7,0.4c1,0.3,1.9,0.8,2.8,1.3
				c0.3,0.2,0.6,0.3,0.9,0.5c0,0,0,0,0,0c0.3,0.2,0.5,0.3,0.8,0.5c0.4,0.3,0.7,0.6,1.1,0.9c0,0,0,0,0,0c0.1,0.1,0.2,0.2,0.3,0.3
				c0,0,0,0,0,0c0.1,0.1,0.2,0.2,0.3,0.3c0.1,0.1,0.2,0.3,0.3,0.4c0.2,0.2,0.3,0.5,0.4,0.7c0.1,0.2,0.2,0.5,0.4,0.7
				c0.1,0.3,0.2,0.5,0.3,0.8c0.1,0.3,0.1,0.5,0.2,0.8c0,0,0,0,0,0c0.1,0.4,0.2,0.8,0.2,1.2c0.1,1,0.1,2,0.1,2.9
				c-0.1,2.6-0.7,5.3-2.2,7.5c-0.2,0.3-0.4,0.5-0.6,0.8s-0.4,0.5-0.6,0.7c-1.1,1.1-2.4,1.8-3.9,2.2c-0.3,0.1-0.6,0.1-0.9,0.2
				c-0.6,0.1-1.1,0.1-1.7,0.1c-0.7,0-1.4,0-2.1-0.1c-0.4,0-0.7-0.1-1.1-0.1c-0.1,0-0.2,0-0.4-0.1c-0.4-0.1-0.8-0.1-1.2-0.2
				c-0.4-0.1-0.9-0.2-1.3-0.3c-0.2-0.1-0.4-0.1-0.6-0.2c-1.4-0.4-2.8-1.1-3.8-2.2c-0.4-0.4-0.7-0.8-1-1.4c0,0,0,0,0,0
				c-0.2-0.3-0.3-0.6-0.4-1c-0.5-1.5-0.5-3.2-0.4-4.8c0-0.6,0.1-1.1,0.2-1.7c0,0,0,0,0,0C176.3,116.2,176.3,115.9,176.4,115.6z"/>
			<path style="fill:#FFFFFF;" d="M176.5,123c-0.5-1.5-0.5-3.2-0.4-4.8C176,119.8,176,121.5,176.5,123z"/>
			<path style="fill:#FCE883;" d="M169.2,99.9c2.8-0.9,5.7-1.6,8.6-2.2C174.9,98.3,172,99.1,169.2,99.9z"/>
			<path style="fill:#FCE883;" d="M170.6,286.3c0.4,0.1,0.7,0.3,1.1,0.4C171.3,286.6,170.9,286.4,170.6,286.3z"/>
			<path style="fill:#FCE883;" d="M169.6,119.8c0.1,0.2,0.2,0.4,0.3,0.7C169.9,120.2,169.8,120,169.6,119.8z"/>
			<path style="fill:#FCE883;" d="M169.6,119.8C169.6,119.8,169.6,119.8,169.6,119.8C169.6,119.8,169.6,119.8,169.6,119.8z"/>
			<path style="fill:#FCE883;" d="M170.4,122.2c0.3,2.1-0.2,4.3-1.8,5.7h0C170.2,126.5,170.8,124.3,170.4,122.2
				c-0.1-0.4-0.2-0.8-0.3-1.2C170.3,121.3,170.4,121.8,170.4,122.2z"/>
			<path style="fill:#FFFFFF;" d="M169.4,124.6c0.4-1.7-0.1-3.3-0.9-4.8C169.3,121.2,169.8,122.9,169.4,124.6z"/>
			<path style="fill:#FFFFFF;" d="M168.6,126.5c-0.1,0-0.2,0-0.2,0C168.4,126.4,168.5,126.4,168.6,126.5c0.2-0.3,0.4-0.6,0.5-0.9
				C168.9,125.9,168.8,126.2,168.6,126.5z"/>
			<path style="fill:#FFFFFF;" d="M167.7,118.6c0.1,0.2,0.3,0.4,0.4,0.6C168,119,167.9,118.8,167.7,118.6z"/>
			<path style="fill:#FFFFFF;" d="M167.6,117C167.6,117,167.6,117,167.6,117C167.6,117,167.6,117,167.6,117z"/>
			<path style="fill:#FFFFFF;" d="M166.2,117c0.1,0.1,0.2,0.2,0.3,0.3C166.4,117.2,166.3,117.1,166.2,117z"/>
			<path style="fill:#FFFFFF;" d="M166.2,117c-0.1-0.1-0.2-0.2-0.3-0.3C166,116.8,166.1,116.9,166.2,117z"/>
			<path style="fill:#FFFFFF;" d="M165.8,115.4c0.1,0.1,0.3,0.2,0.4,0.3C166.1,115.6,166,115.5,165.8,115.4z"/>
			<path style="fill:#FCE883;" d="M165.8,101c-0.5,0.2-1.1,0.4-1.7,0.6C164.7,101.4,165.2,101.2,165.8,101z"/>
			<path style="fill:#FFFFFF;" d="M164.9,116c0.3,0.2,0.6,0.4,0.9,0.7C165.6,116.5,165.3,116.2,164.9,116z"/>
			<path style="fill:#FFFFFF;" d="M163.9,115.5c0.4,0.1,0.7,0.3,1,0.5C164.6,115.8,164.3,115.7,163.9,115.5z"/>
			<path style="fill:#FCE883;" d="M163.6,282.1c0.7,0.4,1.4,0.7,2.1,1C164.9,282.8,164.3,282.4,163.6,282.1
				C163.6,282.1,163.6,282.1,163.6,282.1L163.6,282.1z"/>
			<path style="fill:#FCE883;" d="M161.6,281c0.6,0.4,1.3,0.7,2,1.1C162.9,281.7,162.2,281.4,161.6,281z"/>
			<path style="fill:#FFFFFF;" d="M159.3,116.3c0.7-0.4,1.4-0.7,2.2-0.9c0.8-0.2,1.7-0.1,2.4,0.2c-0.8-0.3-1.6-0.4-2.4-0.2
				C160.8,115.6,160,115.9,159.3,116.3z"/>
			<path style="fill:#FCE883;" d="M156.6,278c1.6,1,3.3,2,5,3C159.9,280.1,158.3,279.1,156.6,278z"/>
			<path style="fill:#FFFFFF;" d="M156.4,135.8c-1.7,1.4-3.3,2.8-4.9,4.2C153.1,138.6,154.7,137.2,156.4,135.8z"/>
			<path style="fill:#FCE883;" d="M156,104.9c-0.5,0.2-1.1,0.5-1.6,0.8C154.9,105.4,155.4,105.2,156,104.9z"/>
			<path style="fill:#FCE883;" d="M152.9,276.7c0.7,0.5,1.3,0.9,2,1.4C154.2,277.6,153.6,277.2,152.9,276.7z"/>
			<path style="fill:#FFFFFF;" d="M157.5,116.2c-1.1,0.6-2.3,1.3-3.4,2c-1.1,0.7-2.1,1.3-3.2,2c1-0.7,2.1-1.4,3.2-2.1
				C155.2,117.5,156.3,116.8,157.5,116.2z"/>
			<path style="fill:#7B3F00;" d="M149.4,274.2c0.7,0.5,1.4,1.1,2.2,1.6C150.9,275.3,150.2,274.8,149.4,274.2z"/>
			<path style="fill:#FFFFFF;" d="M151.5,140.1c-0.7,0.7-1.5,1.4-2.2,2.1C150,141.4,150.8,140.8,151.5,140.1z"/>
			<path style="fill:#FFFFFF;" d="M149.3,142.2c-0.6,0.6-1.2,1.2-1.8,1.9C148.1,143.4,148.7,142.8,149.3,142.2L149.3,142.2z"/>
			<path style="fill:#FCE883;" d="M149,109.6c-1.5,0.9-3,1.8-4.5,2.7C145.9,111.4,147.4,110.5,149,109.6z"/>
			<path style="fill:#FFFFFF;" d="M147.3,144.3c-0.3,0.4-0.7,0.7-1,1.1C146.6,145.1,146.9,144.7,147.3,144.3z"/>
			<path style="fill:#FCE883;" d="M145.6,270.1c0.1,0,0.1,0.1,0.2,0.1C145.8,270.1,145.7,270.1,145.6,270.1z"/>
			<path style="fill:#FCE883;" d="M145.2,270.1c0.1-0.1,0.2-0.1,0.3-0.1C145.4,270,145.3,270.1,145.2,270.1L145.2,270.1z"/>
			<path style="fill:#C12946;" d="M239.1,253.4c0,0,0.1,0.1,0.1,0.1c0.5,0.3,0.9,0.5,1.4,0.8c0.6,0.3,1.2,0.7,1.8,1
				c0.4,0.3,0.9,0.5,1.3,0.8c1.3,0.8,2.7,1.5,4.1,2.1c0.6,0.3,1.3,0.5,2,0.8c0.2,0.1,0.5,0.2,0.8,0.3c0.9,0.3,1.9,0.5,2.8,0.6
				c0.2,0,0.4,0.1,0.6,0.1c0.8,0.1,1.7,0.1,2.5,0c0.1,0,0.2,0,0.3,0c0.2,0,0.4-0.1,0.7-0.1c0.2-0.1,0.4-0.1,0.6-0.2
				c0.2-0.1,0.4-0.2,0.5-0.4c0.1-0.1,0.2-0.1,0.2-0.2c0.3-0.4,0.5-0.7,0.8-1.1c0.1-0.2,0.2-0.4,0.3-0.6s0.2-0.4,0.3-0.6
				c0.2-0.4,0.3-0.9,0.4-1.4c0,0,0,0,0,0c0.1-0.5,0.2-0.9,0.2-1.4c0.3-2.6-0.5-5.3-2.5-7.1c-2.2-2-5.2-2.2-8-1.7
				c-0.4,0.1-0.8,0.2-1.2,0.3c-0.4,0.1-0.8,0.2-1.2,0.3c-1.4,0.4-2.7,1.1-3.9,1.8c-0.4,0.2-0.8,0.5-1.1,0.8c-0.4,0.3-0.7,0.6-1.1,1
				c-0.7,0.7-1.3,1.4-1.8,2.2c-0.3,0.4-0.5,0.8-0.7,1.3c0,0,0,0,0,0.1c-0.1,0-0.1,0-0.1,0.1C239,252.8,238.9,253.1,239.1,253.4z
				 M200.8,266.8c0.7,0.4,1.5,0.7,2.3,0.9c0.8,0.2,1.7,0.2,2.5,0.2c0.7,0,1.4,0,2-0.1c0,0,0,0,0.1,0c0.4,0,0.9-0.1,1.3-0.2
				c0,0,0,0,0,0c0.2,0,0.4-0.1,0.7-0.1c0.4-0.1,0.9-0.2,1.3-0.3c3.5-0.8,6.9-2.4,9.9-4.5c1.1-0.8,2.2-1.6,3.3-2.5
				c0.4-0.3,0.7-0.6,1-0.9c0.7-0.6,1.4-1.2,2-1.9c0.3-0.3,0.7-0.6,1-1v0c0.3-0.3,0.6-0.7,0.9-1v0c0.3-0.3,0.6-0.7,0.9-1
				c0.3-0.3,0.6-0.7,0.9-1c0.1-0.2,0.3-0.3,0.4-0.4c0.1-0.1,0.1-0.2,0.2-0.2c0.1-0.1,0.2-0.3,0.4-0.5c0.1-0.2,0.2-0.3,0.3-0.5
				c0-0.1,0.1-0.2,0.1-0.3c0.1-0.4,0-0.7-0.1-1c0-0.1-0.1-0.2-0.2-0.3c-0.1-0.1-0.1-0.2-0.2-0.2c-0.2-0.2-0.5-0.4-0.9-0.4
				c0,0,0,0-0.1,0c-0.1,0-0.2,0-0.3,0c-0.1-0.1-0.3-0.1-0.4-0.2c0-0.1-0.1-0.3-0.2-0.4c-0.7-0.4-1.4-0.9-2.2-1.3
				c-0.8-0.7-1.7-1.3-2.6-1.9c-0.4-0.3-0.9-0.5-1.3-0.8c-1.2-0.7-2.5-1.3-3.9-1.8c-0.3-0.1-0.6-0.2-0.9-0.3
				c-1.9-0.6-3.9-0.9-5.9-1.1c-4.6-0.2-9.8,1.1-13.2,4.4c-0.5,0.5-0.9,1-1.3,1.5c-0.2,0.3-0.4,0.6-0.6,0.9c-0.4,0.6-0.7,1.2-0.9,1.9
				c-0.2,0.4-0.3,0.9-0.4,1.3c0,0.1-0.1,0.3-0.1,0.4c-0.1,0.5-0.2,1-0.3,1.5c0,0.1,0,0.1,0,0.2c-0.2,1.5-0.1,3,0.1,4.5
				c0.4,2.7,1.3,5.8,3.4,7.6h0C200.1,266.3,200.4,266.5,200.8,266.8z M176.3,116.5c-0.1,0.5-0.1,1.1-0.2,1.7
				c-0.2,1.6-0.2,3.3,0.4,4.8c0.1,0.3,0.2,0.7,0.4,1c0,0,0,0,0,0c0.3,0.5,0.6,1,1,1.4c1,1.1,2.4,1.8,3.8,2.2
				c0.2,0.1,0.4,0.1,0.6,0.2c0.4,0.1,0.8,0.2,1.3,0.3c0.4,0.1,0.8,0.2,1.2,0.2c0.1,0,0.2,0,0.4,0.1c0.4,0.1,0.7,0.1,1.1,0.1
				c0.7,0.1,1.4,0.1,2.1,0.1c0.6,0,1.1-0.1,1.7-0.1c0.3-0.1,0.6-0.1,0.9-0.2c1.5-0.4,2.8-1.2,3.9-2.2c0.2-0.2,0.4-0.4,0.6-0.7
				s0.4-0.5,0.6-0.8c1.5-2.2,2.1-4.8,2.2-7.5c0-0.9,0-1.9-0.1-2.9c-0.1-0.4-0.1-0.8-0.2-1.2c0,0,0,0,0,0c-0.1-0.3-0.1-0.5-0.2-0.8
				c-0.1-0.3-0.2-0.5-0.3-0.8c-0.1-0.2-0.2-0.5-0.4-0.7c-0.1-0.2-0.3-0.5-0.4-0.7c-0.1-0.1-0.2-0.3-0.3-0.4
				c-0.1-0.1-0.2-0.2-0.3-0.3c0,0,0,0,0,0c-0.1-0.1-0.2-0.2-0.3-0.3c0,0,0,0,0,0c-0.3-0.3-0.7-0.6-1.1-0.9c-0.2-0.2-0.5-0.4-0.8-0.5
				h0c-0.3-0.2-0.6-0.4-0.9-0.5c-0.9-0.5-1.9-1-2.8-1.3c-0.6-0.2-1.1-0.3-1.7-0.4c-1.1-0.2-2.2-0.1-3.3,0.1c0,0,0,0,0,0
				c-0.5,0.1-1,0.2-1.4,0.4c-0.2,0-0.3,0.1-0.5,0.2c-3.6,1.5-5.9,4.6-6.7,8.2c-0.1,0.6-0.2,1.1-0.3,1.7
				C176.3,115.9,176.3,116.2,176.3,116.5C176.3,116.5,176.3,116.5,176.3,116.5z M108.4,211.5c0.1,3.8,0.5,7.7,1.5,11.3
				c0.3,1.2,0.7,2.4,1.2,3.6c0.1,0.1,0.1,0.3,0.2,0.4c0.2,0.4,0.3,0.9,0.6,1.3c0.3,0.6,0.5,1.1,0.8,1.7c0.2,0.4,0.8,0.3,0.9-0.1
				c0-0.1,0.1-0.3,0.1-0.4c0.1-0.3,0.1-0.5,0.2-0.8c0.2-0.1,0.4-0.3,0.3-0.6c0-0.1,0-0.2,0-0.4c0-0.1,0-0.2,0-0.4
				c0-0.2,0.1-0.3,0.1-0.5c0-0.1,0-0.2,0-0.2c0-0.1-0.1-0.1-0.1-0.2c0,0,0,0-0.1-0.1c0-1.3,0.1-2.5,0.4-3.8c0.1-0.4,0.2-0.8,0.2-1.1
				c0.1-0.4,0.2-0.8,0.3-1.1c0.2-0.9,0.5-1.9,0.7-2.8c0.1-0.2,0.1-0.4,0.1-0.6v0c0.3-1.4,0.6-2.8,0.7-4.3c0-0.5,0.1-1,0.1-1.4
				c0-0.4,0-0.9,0.1-1.3c0-0.3,0.1-0.7,0.1-1c0.1-0.8,0.2-1.5,0.3-2.2c0,0,0,0,0,0c0.1-0.5,0.2-1,0.4-1.5c0.1-0.5,0.3-0.9,0.4-1.4
				c0.4-1.4,0.9-2.7,1.4-4.1c0.6-1.8,1.1-3.5,1.7-5.3c1.1-3.6,2.2-7.2,3.4-10.8c0.4-1.3,0.9-2.7,1.4-4c0.2-0.4,0.3-0.9,0.5-1.3
				c0.5-1.3,1-2.6,1.6-3.9c0.2-0.4,0.4-0.8,0.6-1.3v0c0.2-0.4,0.4-0.9,0.6-1.3c0,0,0,0,0,0c0.4-0.9,0.8-1.7,1.2-2.5
				c0.2-0.4,0.4-0.8,0.7-1.2c0.9-1.6,1.9-3.3,2.9-4.8c0.5-0.8,1.1-1.6,1.7-2.4c0,0,0,0,0,0c0.9-1.2,1.7-2.4,2.6-3.5c0,0,0,0,0,0
				c0.6-0.8,1.2-1.5,1.8-2.3c0.3-0.4,0.6-0.8,0.9-1.1c0.5-0.7,1.1-1.3,1.6-2c1.9-2.4,3.9-4.8,6-7.1c2.4-2.6,4.9-4.9,7.6-7.2
				c3.4-2.9,7.1-5.6,10.6-8.4c0.5-0.4,1-0.8,1.6-1.2c0.2,0.1,0.4,0.1,0.6,0h0c1.6-1.4,2.1-3.7,1.8-5.7c-0.1-0.4-0.2-0.8-0.3-1.2
				c-0.1-0.2-0.1-0.3-0.2-0.5c-0.1-0.2-0.2-0.5-0.3-0.7c0,0,0,0,0,0c-0.5-1-1.2-1.9-2-2.8c0,0,0,0,0,0c-0.2-0.2-0.4-0.4-0.6-0.6
				c-0.2-0.2-0.5-0.5-0.8-0.7c-0.1-0.1-0.3-0.2-0.4-0.3c-1.5-1-3.3-1.5-5.1-0.9c-1.1,0.4-2.2,1-3.2,1.6c-1.1,0.6-2.3,1.3-3.4,2
				c-1.1,0.7-2.1,1.3-3.2,2.1c-2.1,1.4-4.1,2.9-6.1,4.5c-0.8,0.6-1.5,1.3-2.3,2c-0.7,0.6-1.3,1.2-2,1.8c-0.5,0.4-0.9,0.9-1.4,1.3
				c-0.5,0.4-0.9,0.9-1.4,1.4c-0.4,0.4-0.9,0.9-1.3,1.4c-1.7,1.8-3.4,3.8-4.9,5.7c-3.8,4.9-7.2,10.2-10.1,15.7
				c-0.3,0.5-0.5,1-0.8,1.5c0,0,0,0,0,0c-0.6,1.1-1.1,2.2-1.6,3.3c0,0,0,0,0,0c-0.8,1.7-1.5,3.4-2.2,5.1c-1,2.5-1.9,5.1-2.8,7.7
				c-0.4,1.3-0.8,2.6-1.2,3.9c-0.4,1.3-0.7,2.6-1.1,3.9c-0.2,0.9-0.5,1.9-0.7,2.9c-0.2,1-0.5,2.1-0.7,3.1c-0.7,3.3-1.2,6.7-1.6,10.1
				c-0.4,3.2-0.6,6.5-0.7,9.8C108.3,207.2,108.3,209.4,108.4,211.5z M93.2,205.4c2.6-2,5.5-3.5,8.6-4.6h0c0.9-0.3,1.8-0.6,2.7-0.8
				c0.1,0,0.2-0.1,0.3-0.2c0.1-0.2,0.1-0.5-0.1-0.6c0,0,0-0.1-0.1-0.1c0,0,0,0,0,0c0,0-0.1-0.1-0.1-0.1c-0.1,0-0.1,0-0.2,0
				c0,0,0.1-0.1,0.1-0.1c0.1-0.1,0.1-0.1,0.1-0.2c0,0,0-0.1,0-0.1c0,0,0-0.1,0-0.1c-2.2-8.5-2.4-17.3-1.1-25.9
				c0.2-1.3,0.4-2.6,0.7-3.9c0.3-1.3,0.6-2.5,0.9-3.8c0.1-0.4,0.2-0.8,0.3-1.3c0.3-1.3,0.7-2.5,1.2-3.8c0.1-0.5,0.3-0.9,0.5-1.4
				c0.3-0.8,0.6-1.5,0.9-2.3c0.3-0.8,0.6-1.6,1-2.4c0.2-0.4,0.3-0.8,0.5-1.2c0.2-0.4,0.4-0.8,0.5-1.2c0.4-0.8,0.7-1.6,1.1-2.4
				c0.6-1.2,1.2-2.3,1.8-3.5c0.2-0.4,0.4-0.8,0.6-1.1c0,0,0,0,0,0c0.2-0.4,0.4-0.7,0.7-1.1v0c0.6-1,1.2-2,1.9-3c0,0,0,0,0,0
				c0.6-1,1.3-1.9,2-2.9c0.7-1,1.4-1.9,2.1-2.8c0.7-0.9,1.4-1.8,2.2-2.7c1.1-1.3,2.3-2.7,3.5-3.9c0.8-0.8,1.6-1.7,2.4-2.5
				c0.8-0.8,1.6-1.6,2.5-2.4c4.3-3.9,9-7.5,13.9-10.7c1.5-0.9,3-1.8,4.5-2.7c2-1.2,4.1-2.2,6.2-3.2c17-8.1,36.1-11.2,54.8-8.6
				c19,2.6,37.2,10.8,51.6,23.5c3.3,2.9,6.4,6,9.1,9.4c0.4,0.5,0.8,1,1.2,1.5c2.6,3.5,4.8,7.3,6.3,11.4c0.2,0.6,0.4,1.2,0.6,1.8
				c0.1,0.5,0.3,0.9,0.4,1.4c0,0,0,0,0,0c0.4,1.4,0.7,2.8,0.9,4.2c0,0,0,0.1,0,0.1c0.2,0.9,0.3,1.9,0.4,2.9c0,0.5,0.1,1,0.2,1.4
				c0.2,2.4,0.4,4.8,0.4,7.2c0.1,2.9,0.1,5.8,0.1,8.7c0,1,0,2,0,3c0,0.8,0,1.7,0,2.6c0.1,1.9,0.1,3.8,0.3,5.8c0,0.6,0.1,1.1,0.1,1.7
				c0,0,0,0,0,0.1c0,0-0.1,0-0.1,0c-0.2,0-0.4,0-0.5,0.2c-0.1,0.1-0.1,0.1-0.1,0.2c-0.1,0.2-0.1,0.4,0,0.5c0.1,0.1,0.1,0.1,0.3,0.1
				l0,0c0,0,0,0,0.1,0c0.4,0.1,0.8,0.1,1.1,0.2c5,0.9,10.1,1.9,15.1,2.8c0.3,0.1,0.6,0.1,0.9,0.2c0.4,0.1,0.9,0.2,1.3,0.2
				c0.2,0,0.4,0.1,0.5,0.1c0.6,0.1,1.1,0.2,1.7,0.4c0.7,0.2,1.4,0.3,2,0.5c0.9,0.2,1.7,0.5,2.5,0.8c1.7,0.6,3.4,1.4,5,2.4
				c0.6,0.4,1.2,0.8,1.7,1.2c0.3,0.3,0.7,0.6,1,0.8c0.2,0.2,0.4,0.4,0.6,0.6c0.4,0.4,0.8,0.8,1.1,1.2c0,0,0,0,0,0
				c0.4,0.6,0.9,1.2,1.2,1.8c0.9,1.5,1.4,3.2,1.6,5c0.3,2.5,0,5-0.7,7.4c-0.6,2.3-1.6,4.6-2.6,6.7c-1.2,2.6-2.6,5.1-4.1,7.6
				c-0.8,1.2-1.5,2.4-2.4,3.6c-0.8,1.2-1.7,2.3-2.5,3.5c-0.1,0.1-0.1,0.2-0.1,0.3c0,0-0.1,0-0.1,0.1c-0.1,0.1-0.2,0.3-0.1,0.5
				c1.8,5.6,3.9,12.4,1,17.9c-1.5,2.8-4,4.7-6.4,6.7c-2.6,2.1-5.1,4.2-7.9,6.1c-1.4,0.9-2.8,1.8-4.3,2.6c-0.7,0.4-1.5,0.7-2.2,1.1
				c-0.4,0.2-0.8,0.3-1.2,0.5c-0.4,0.1-0.8,0.3-1.2,0.4c-1.2,0.4-2.4,0.8-3.6,1.1c-1.6,0.4-3.2,0.8-4.9,1.1
				c-0.4,0.1-0.8,0.2-1.2,0.2c-6.6,1.1-13.3,1.4-19.9,0.8c-1.8-0.2-3.7-0.4-5.5-0.7c-0.5-0.1-0.9-0.1-1.4-0.2c-5-0.9-9.9-2.2-14.7-4
				c0-0.3-0.4-0.6-0.8-0.4c-2.8,1.3-5.6,2.8-8.3,4.4c-5.1,3-10,6.2-15.1,9.1c-0.7,0.4-1.4,0.8-2.1,1.1s-1.4,0.7-2.1,1.1
				c-0.7,0.3-1.4,0.7-2.1,1c-1.1,0.5-2.1,1-3.2,1.4c-1.2,0.5-2.5,0.9-3.8,1.4c-1,0.3-1.9,0.6-2.9,0.8c0,0,0,0,0,0
				c-0.5,0.1-1.1,0.2-1.6,0.4c-3.2,0.6-6.4,0.9-9.6,0.7c-1.5-0.1-3.1-0.3-4.6-0.6c-0.4-0.1-0.7-0.2-1.1-0.3
				c-3.4-0.8-6.6-2.1-9.7-3.6c-0.7-0.3-1.4-0.7-2.1-1h0c-0.7-0.4-1.3-0.7-2-1.1c-1.7-0.9-3.3-1.9-5-3c-3.8-2.4-7.4-5-10.8-7.9
				c-0.1,0-0.1-0.1-0.2-0.1c0,0-0.1,0-0.2,0c-0.1,0-0.2,0-0.3,0.1c0-0.2,0-0.3-0.2-0.5c0,0-0.1,0-0.1,0c0,0,0,0,0,0
				c-0.1,0-0.1,0-0.2,0c-4.3-0.1-8.6,0.2-12.8,0.4c-0.5,0-0.9,0.1-1.4,0.1c-4.3,0.2-8.6,0.5-12.9,0.3c-1,0-2-0.1-2.9-0.2
				c-0.1,0-0.2,0-0.3,0c-1.2-0.1-2.4-0.2-3.7-0.4c-0.9-0.1-1.8-0.3-2.7-0.5c-1.3-0.3-2.6-0.6-3.9-1c-4.7-1.4-9.2-3.7-12.8-7.2
				c-1.2-1.1-2.2-2.4-3.2-3.7c-1.6-2.2-3-4.6-4.1-7c-0.5-1.1-1-2.1-1.4-3.3c0,0,0,0,0,0c-0.4-1.1-0.8-2.2-1.2-3.4
				c-0.3-1-0.6-2-0.8-3c-0.3-1.3-0.6-2.6-0.8-3.9c-0.5-3.5-0.4-7,0.2-10.4c0.2-1.1,0.5-2.3,0.8-3.4c0.1-0.4,0.2-0.8,0.4-1.1
				c0.2-0.7,0.5-1.5,0.8-2.2c0.1-0.4,0.3-0.7,0.5-1.1c0.3-0.7,0.7-1.4,1.1-2.1c0.4-0.7,0.8-1.4,1.2-2c1-1.6,2.1-3.1,3.4-4.5
				c1.2-1.4,2.6-2.7,4-3.9C92.5,205.9,92.8,205.7,93.2,205.4z"/>
			<path style="fill:#FCE883;" d="M144.9,269.6C145,269.6,145,269.7,144.9,269.6C145,269.7,145,269.6,144.9,269.6z"/>
			<path style="fill:#FCE883;" d="M144.9,269.6C144.9,269.6,144.9,269.6,144.9,269.6C144.9,269.6,144.9,269.6,144.9,269.6z"/>
			<path style="fill:#FCE883;" d="M144.9,270.5L144.9,270.5c0,0,0,0.1,0,0.1C144.9,270.6,144.9,270.6,144.9,270.5z"/>
			<path style="fill:#F4F4F4;" d="M144.7,106.2c0.6,0,0.6,1,0,1c-0.1,0-0.2,0-0.3-0.1c-0.2-0.2-0.2-0.6-0.1-0.8c0,0,0-0.1,0.1-0.1
				C144.5,106.2,144.6,106.2,144.7,106.2z"/>
			<path style="fill:#F4F4F4;" d="M144.4,106.2C144.4,106.3,144.3,106.3,144.4,106.2C144.3,106.3,144.4,106.3,144.4,106.2z"/>
			<path style="fill:#F4F4F4;" d="M144.3,106.3c-0.2,0.2-0.2,0.6,0.1,0.8C144.1,106.9,144.1,106.5,144.3,106.3z"/>
			<path style="fill:#FFFFFF;" d="M142.6,126.7c0.8-0.7,1.5-1.3,2.3-2C144.1,125.3,143.3,126,142.6,126.7z"/>
			<path style="fill:#FFFFFF;" d="M148.9,122.9c-2.4,1.8-4.8,3.7-7,5.7C144.1,126.6,146.4,124.7,148.9,122.9c0.5-0.4,1-0.7,1.5-1.1
				C149.8,122.2,149.4,122.5,148.9,122.9z"/>
			<path style="fill:#FFFFFF;" d="M142.6,126.7c-0.7,0.6-1.3,1.2-2,1.8C141.2,127.8,141.9,127.2,142.6,126.7z"/>
			<path style="fill:#FCE883;" d="M148.3,144.8c-2.1,2.3-4.1,4.7-6,7.1C144.2,149.4,146.2,147,148.3,144.8c2.4-2.6,4.9-5,7.6-7.2
				C153.2,139.8,150.6,142.2,148.3,144.8z"/>
			<path style="fill:#FCE883;" d="M140.7,113.6c-0.5,0.3-1,0.7-1.4,1C139.8,114.3,140.2,113.9,140.7,113.6z"/>
			<path style="fill:#FFFFFF;" d="M139.2,129.8c0.4-0.4,0.9-0.9,1.4-1.3C140.1,128.9,139.6,129.3,139.2,129.8z"/>
			<path style="fill:#FFFFFF;" d="M137.8,131.1c0.4-0.5,0.9-0.9,1.4-1.4C138.7,130.2,138.3,130.6,137.8,131.1z"/>
			<path style="fill:#FCE883;" d="M139.8,154.9c-0.6,0.8-1.2,1.5-1.8,2.3C138.5,156.4,139.1,155.7,139.8,154.9z"/>
			<path style="fill:#FFFFFF;" d="M139.2,131.1c-0.9,0.9-1.7,1.7-2.5,2.6C137.5,132.8,138.4,132,139.2,131.1z"/>
			<path style="fill:#FCE883;" d="M135.3,160.7c0.9-1.2,1.7-2.4,2.6-3.5C137,158.4,136.1,159.5,135.3,160.7z"/>
			<path style="fill:#FFFFFF;" d="M137.8,131.1c-0.4,0.4-0.9,0.9-1.3,1.4C136.9,132,137.4,131.6,137.8,131.1z"/>
			<path style="fill:#FFFFFF;" d="M139,154.3c-1.2,1.5-2.4,3.1-3.6,4.7C136.5,157.4,137.7,155.8,139,154.3z"/>
			<path style="fill:#FFFFFF;" d="M136,134.5c-0.6,0.6-1.1,1.3-1.7,1.9C134.9,135.8,135.4,135.2,136,134.5z"/>
			<path style="fill:#FCE883;" d="M133.7,118.9c0.9-0.8,1.8-1.5,2.8-2.2C135.5,117.4,134.6,118.2,133.7,118.9z"/>
			<path style="fill:#FCE883;" d="M135.3,160.7c-0.6,0.8-1.1,1.6-1.7,2.4C134.2,162.3,134.7,161.5,135.3,160.7z"/>
			<path style="fill:#FCE883;" d="M133.7,118.9c-0.9,0.8-1.8,1.5-2.7,2.3C131.9,120.4,132.8,119.7,133.7,118.9z"/>
			<path style="fill:#FFFFFF;" d="M132.6,162.8L132.6,162.8C132.6,162.8,132.6,162.8,132.6,162.8z"/>
			<path style="fill:#FFFFFF;" d="M132.6,162.8c-0.5,0.8-1,1.6-1.5,2.4C131.6,164.4,132.1,163.6,132.6,162.8z"/>
			<path style="fill:#FCE883;" d="M144.5,112.3c-4.9,3.1-9.6,6.7-13.9,10.7C134.9,119,139.5,115.4,144.5,112.3z"/>
			<path style="fill:#FCE883;" d="M131.9,270c-0.5,0-0.9,0.1-1.4,0.1C131,270.1,131.4,270,131.9,270z"/>
			<path style="fill:#FFFFFF;" d="M131.1,165.3c-0.5,0.8-1,1.7-1.4,2.5C130.1,166.9,130.6,166.1,131.1,165.3z"/>
			<path style="fill:#FCE883;" d="M130.1,169.2c0.2-0.4,0.4-0.8,0.7-1.2C130.5,168.4,130.3,168.8,130.1,169.2z"/>
			<path style="fill:#FCE883;" d="M128.8,171.7c0.4-0.9,0.8-1.7,1.2-2.5C129.6,170.1,129.2,170.9,128.8,171.7z"/>
			<path style="fill:#FCE883;" d="M128.1,125.4c0.8-0.8,1.6-1.6,2.5-2.4C129.7,123.8,128.9,124.6,128.1,125.4z"/>
			<path style="fill:#FCE883;" d="M128.2,173c0.2-0.4,0.4-0.9,0.6-1.3C128.6,172.2,128.4,172.6,128.2,173z"/>
			<path style="fill:#FCE883;" d="M131,121.2c-1.3,1.2-2.6,2.4-3.9,3.7C128.4,123.7,129.7,122.4,131,121.2z"/>
			<path style="fill:#FCE883;" d="M128.2,173c-0.2,0.4-0.4,0.9-0.6,1.3C127.8,173.9,128,173.5,128.2,173z"/>
			<path style="fill:#FFFFFF;" d="M128.8,143.6c-0.7,1-1.3,2-2,3C127.5,145.6,128.1,144.6,128.8,143.6z"/>
			<path style="fill:#FCE883;" d="M125.6,127.9c0.8-0.8,1.6-1.7,2.4-2.5C127.2,126.2,126.4,127,125.6,127.9z"/>
			<path style="fill:#FCE883;" d="M125.6,179.6c0.2-0.4,0.3-0.9,0.5-1.3C125.9,178.7,125.8,179.1,125.6,179.6z"/>
			<path style="fill:#FFFFFF;" d="M125.1,178.1c-0.2,0.4-0.3,0.9-0.5,1.3C124.7,179,124.9,178.6,125.1,178.1z"/>
			<path style="fill:#FFFFFF;" d="M125.9,148.1c-0.6,1-1.2,2-1.8,3.1C124.7,150.2,125.3,149.1,125.9,148.1z"/>
			<path style="fill:#FCE883;" d="M127.2,124.9c-2.1,2.1-4.1,4.3-6,6.6C123.1,129.2,125.1,127,127.2,124.9z"/>
			<path style="fill:#FFFFFF;" d="M123.2,152.8c0.3-0.5,0.6-1,0.9-1.6C123.8,151.7,123.5,152.2,123.2,152.8z"/>
			<path style="fill:#FFFFFF;" d="M122.4,154.3c0.3-0.5,0.5-1.1,0.8-1.6C123,153.3,122.7,153.8,122.4,154.3z"/>
			<path style="fill:#FFFFFF;" d="M121.6,155.9c0.3-0.5,0.5-1.1,0.8-1.6C122.1,154.8,121.9,155.4,121.6,155.9z"/>
			<path style="fill:#FFFFFF;" d="M121.5,153.9c-0.3,0.5-0.5,1-0.8,1.5C121,154.9,121.3,154.4,121.5,153.9z"/>
			<path style="fill:#FCE883;" d="M120,134.5c0.7-0.9,1.4-1.8,2.2-2.7C121.4,132.7,120.7,133.6,120,134.5z"/>
			<path style="fill:#FFFFFF;" d="M121.6,155.9c-1,2.1-2,4.3-3,6.5C119.6,160.2,120.5,158,121.6,155.9z"/>
			<path style="fill:#FFFFFF;" d="M119.2,158.7c0.5-1.1,1-2.2,1.6-3.3C120.2,156.4,119.7,157.6,119.2,158.7z"/>
			<path style="fill:#FCE883;" d="M117,206.6c0.1-0.5,0.2-1,0.4-1.5c0.1-0.5,0.3-0.9,0.4-1.4c-0.2,0.5-0.3,0.9-0.4,1.4
				C117.2,205.6,117.1,206.1,117,206.6z"/>
			<path style="fill:#FCE883;" d="M117.9,137.4c-0.7,0.9-1.3,1.9-2,2.9C116.6,139.3,117.2,138.3,117.9,137.4z"/>
			<path style="fill:#FCE883;" d="M116.7,208.9c0.1-0.7,0.2-1.5,0.3-2.2C116.8,207.4,116.7,208.1,116.7,208.9z"/>
			<path style="fill:#FCE883;" d="M116.4,212.6c0-0.5,0.1-1,0.1-1.5c0-0.4,0.1-0.8,0.1-1.3c0,0.4-0.1,0.8-0.1,1.3
				C116.5,211.6,116.4,212.1,116.4,212.6z"/>
			<path style="fill:#FFFFFF;" d="M117,163.8c-1,2.5-1.9,5.1-2.8,7.6C115.1,168.8,116,166.3,117,163.8c0.7-1.7,1.4-3.4,2.2-5.1
				C118.4,160.4,117.7,162.1,117,163.8z"/>
			<path style="fill:#FFFFFF;" d="M116.1,169c-0.9,2.5-1.7,5-2.4,7.6C114.4,174,115.2,171.5,116.1,169c0.8-2.2,1.6-4.5,2.5-6.6
				C117.7,164.5,116.9,166.8,116.1,169z"/>
			<path style="fill:#FCE883;" d="M115.7,216.9c0,0.2-0.1,0.4-0.1,0.6C115.6,217.2,115.7,217,115.7,216.9z"/>
			<path style="fill:#FFFFFF;" d="M115.5,211.3c0-0.3,0-0.7,0-1C115.5,210.6,115.5,211,115.5,211.3z"/>
			<path style="fill:#FFFFFF;" d="M115.4,212.1c0,0.6-0.1,1.2-0.2,1.8C115.3,213.3,115.4,212.7,115.4,212.1z"/>
			<path style="fill:#FFFFFF;" d="M115.3,213.9c0,0.2,0,0.4-0.1,0.5c0,0.2-0.1,0.5-0.1,0.7c0.1-0.2,0.1-0.5,0.1-0.7
				C115.2,214.2,115.2,214.1,115.3,213.9z"/>
			<path style="fill:#FCE883;" d="M114.1,143.2c0.6-1,1.2-2,1.9-3C115.3,141.2,114.7,142.2,114.1,143.2z"/>
			<path style="fill:#FCE883;" d="M114.5,221.4c0.1-0.4,0.2-0.8,0.3-1.1C114.7,220.6,114.6,221,114.5,221.4z"/>
			<path style="fill:#FCE883;" d="M114.6,270.2c-0.1,0-0.2,0-0.3,0C114.4,270.2,114.5,270.2,114.6,270.2c1,0.1,2,0.1,2.9,0.2
				C116.6,270.4,115.6,270.3,114.6,270.2z"/>
			<path style="fill:#FCE883;" d="M114.1,143.2c-0.2,0.4-0.4,0.7-0.7,1.1C113.6,144,113.8,143.6,114.1,143.2z"/>
			<path style="fill:#FFFFFF;" d="M114.8,216.5c-0.3,1.1-0.6,2.3-0.9,3.4C114.2,218.8,114.5,217.6,114.8,216.5z"/>
			<path style="fill:#FCE883;" d="M114,226.4c0,0.1,0.1,0.1,0.1,0.2C114.1,226.5,114,226.4,114,226.4z"/>
			<path style="fill:#FCE883;" d="M114,227.6c0-0.1,0-0.2,0-0.4c0-0.1,0.1-0.3,0.1-0.5c0-0.1,0-0.1,0-0.2c0,0.1,0,0.1,0,0.2
				c0,0.1-0.1,0.3-0.1,0.5C114,227.4,114,227.5,114,227.6z"/>
			<path style="fill:#FCE883;" d="M114.3,222.5c-0.2,1.3-0.4,2.5-0.4,3.8c0,0,0,0,0.1,0.1c0,0,0,0-0.1-0.1
				C113.9,225,114,223.8,114.3,222.5z"/>
			<path style="fill:#FCE883;" d="M113.7,228.5L113.7,228.5c0,0.3-0.1,0.5-0.2,0.8C113.6,229,113.7,228.8,113.7,228.5z"/>
			<path style="fill:#FFFFFF;" d="M112.7,180.4c0.3-1.3,0.6-2.6,1-3.8C113.4,177.8,113.1,179.1,112.7,180.4z"/>
			<path style="fill:#FFFFFF;" d="M114.2,171.4c-0.4,1.3-0.8,2.6-1.2,3.9C113.4,174,113.8,172.7,114.2,171.4z"/>
			<path style="fill:#FCE883;" d="M113.4,144.3c-0.2,0.4-0.4,0.8-0.6,1.1C113,145.1,113.2,144.7,113.4,144.3z"/>
			<path style="fill:#FCE883;" d="M114.3,270.2c-1.2-0.1-2.4-0.2-3.7-0.4C111.9,270,113.1,270.1,114.3,270.2z"/>
			<path style="fill:#FFFFFF;" d="M112.9,226.9c0,0.1,0,0.2,0,0.3c0,0.1,0,0.2-0.1,0.3c0-0.1,0-0.2,0.1-0.3
				C113,227.1,112.9,227,112.9,226.9z"/>
			<path style="fill:#FFFFFF;" d="M112.9,227.5c0,0.2-0.1,0.4-0.1,0.6C112.8,227.9,112.9,227.7,112.9,227.5z"/>
			<path style="fill:#FFFFFF;" d="M112.8,228.1c-1.2-2.6-2-5.4-2.6-8.2c-0.3-1.5-0.5-3.1-0.6-4.6c0-0.6-0.1-1.1-0.1-1.7
				c-0.1-1.7-0.2-3.4-0.2-5.1c0-2.9,0.1-5.7,0.3-8.5c0.1-2,0.3-4,0.6-5.9c0.2-1.3,0.3-2.6,0.6-3.9c0.5-3.3,1.1-6.5,1.9-9.7
				c0.3-1.3,0.6-2.6,1-3.8c0.7-2.5,1.5-5.1,2.4-7.6c0.8-2.2,1.6-4.5,2.5-6.6c0.9-2.2,1.9-4.3,3-6.5c0.3-0.5,0.5-1.1,0.8-1.6
				c0.3-0.5,0.6-1.1,0.8-1.6s0.6-1,0.9-1.6c0.6-1,1.2-2.1,1.8-3.1c0.3-0.5,0.6-1,0.9-1.5c0.6-1,1.3-2,2-3c1.7-2.5,3.6-4.9,5.5-7.2
				c0.6-0.6,1.1-1.3,1.7-1.9c0.2-0.3,0.5-0.5,0.7-0.8c0.8-0.9,1.7-1.8,2.5-2.6s1.7-1.7,2.6-2.5c2.2-2,4.6-4,7-5.7
				c0.5-0.4,1-0.7,1.5-1.1c1.5-1.1,3-2.1,4.6-3c1-0.6,2.1-1.2,3.1-1.8c0.4-0.2,0.8-0.5,1.2-0.7c0.7-0.4,1.4-0.7,2.2-0.9
				c0.8-0.2,1.6-0.1,2.4,0.2c0.3,0.1,0.7,0.3,1,0.5c0,0,0,0,0,0c0.3,0.2,0.6,0.4,0.9,0.7c0,0,0,0,0,0c0.1,0.1,0.2,0.2,0.3,0.3
				c0.1,0.1,0.2,0.2,0.3,0.3c0.4,0.3,0.7,0.7,1,1.1c0.1,0.1,0.1,0.2,0.2,0.3c0.1,0.2,0.3,0.4,0.4,0.6c0.1,0.2,0.3,0.4,0.4,0.6
				c0.8,1.5,1.3,3.1,0.9,4.8c-0.1,0.4-0.2,0.7-0.3,1c-0.1,0.3-0.3,0.6-0.5,0.9c-0.1,0-0.2,0-0.2,0c-0.1,0-0.1,0-0.2,0.1
				c-3.3,2.6-6.5,5.1-9.8,7.7c-0.7,0.5-1.3,1-2,1.6c-1.7,1.4-3.3,2.8-4.9,4.2c-0.7,0.7-1.5,1.4-2.2,2.1h0c-0.6,0.6-1.2,1.2-1.8,1.9
				c-0.1,0.1-0.2,0.2-0.3,0.3c-0.3,0.4-0.7,0.7-1,1.1c-1.6,1.9-3.2,3.8-4.8,5.7c-0.9,1-1.7,2.1-2.5,3.1c-1.2,1.5-2.5,3.1-3.6,4.7
				c-0.4,0.5-0.7,1-1.1,1.5c-0.6,0.8-1.1,1.6-1.6,2.4c0,0,0,0,0,0v0c-0.5,0.8-1.1,1.6-1.5,2.4c0,0,0,0,0,0c-0.5,0.8-1,1.7-1.4,2.5
				c-0.5,0.9-0.9,1.7-1.3,2.6c-1.2,2.5-2.3,5.1-3.3,7.8c-0.2,0.4-0.3,0.9-0.5,1.3c-0.2,0.4-0.3,0.9-0.5,1.3
				c-2.5,7.2-4.5,14.6-6.9,21.8c-0.6,1.9-1.2,3.8-1.5,5.7c-0.1,0.7-0.1,1.4-0.2,2.1c0,0.3,0,0.7,0,1c0,0.3,0,0.5,0,0.8
				c0,0.6-0.1,1.2-0.2,1.8c0,0.2,0,0.4-0.1,0.5c0,0.2-0.1,0.5-0.1,0.7c-0.1,0.5-0.2,0.9-0.3,1.4c-0.3,1.1-0.6,2.3-0.9,3.4
				c-0.5,1.8-0.9,3.7-1,5.6c0,0.5,0,0.9,0,1.4c0,0.1,0,0.2,0,0.3c0,0.1,0,0.2-0.1,0.3C112.9,227.7,112.8,227.9,112.8,228.1z"/>
			<path style="fill:#F4F4F4;" d="M112.1,108.9C112.1,108.9,112.1,108.9,112.1,108.9C112.1,108.9,112.1,108.9,112.1,108.9z"/>
			<path style="fill:#F4F4F4;" d="M112.1,109.5c0,0.1-0.1,0.1-0.1,0.1C112.1,109.6,112.1,109.5,112.1,109.5z"/>
			<path style="fill:#FFFFFF;" d="M112,179.2c-0.2,0.9-0.5,1.9-0.7,2.9C111.5,181.1,111.8,180.2,112,179.2z"/>
			<path style="fill:#F4F4F4;" d="M111.7,108.7c0.2,0,0.3,0.1,0.4,0.2c0,0,0,0.1,0.1,0.1c0.1,0.2,0.1,0.4,0,0.5
				c0,0.1-0.1,0.1-0.1,0.1c-0.1,0.1-0.2,0.1-0.3,0.1c-0.1,0-0.2,0-0.3-0.1c-0.2-0.2-0.2-0.5-0.1-0.8c0,0,0,0,0.1-0.1
				C111.5,108.7,111.6,108.7,111.7,108.7z"/>
			<path style="fill:#F4F4F4;" d="M111.4,108.8C111.4,108.8,111.4,108.8,111.4,108.8C111.4,108.8,111.4,108.8,111.4,108.8z"/>
			<path style="fill:#FFFFFF;" d="M111.8,228.2c-0.2-0.4-0.4-0.9-0.6-1.3C111.4,227.3,111.6,227.8,111.8,228.2z"/>
			<path style="fill:#F4F4F4;" d="M111.4,108.8c-0.2,0.2-0.2,0.6,0.1,0.8C111.2,109.4,111.2,109.1,111.4,108.8z"/>
			<path style="fill:#FCE883;" d="M109.8,151.3c0.4-0.8,0.7-1.6,1.1-2.4C110.6,149.7,110.2,150.5,109.8,151.3z"/>
			<path style="fill:#FFFFFF;" d="M110.8,190.1c-0.2,1.3-0.4,2.6-0.6,3.9C110.4,192.7,110.6,191.4,110.8,190.1z"/>
			<path style="fill:#FFFFFF;" d="M109.9,222.8c0.3,1.2,0.7,2.4,1.2,3.6c0.1,0.1,0.1,0.3,0.2,0.4c-0.1-0.1-0.1-0.3-0.2-0.4
				C110.6,225.3,110.2,224.1,109.9,222.8z"/>
			<path style="fill:#FFFFFF;" d="M109.6,215.2c0.1,1.6,0.3,3.1,0.6,4.6C109.9,218.3,109.7,216.8,109.6,215.2
				c-0.1-0.6-0.1-1.1-0.1-1.7C109.5,214.1,109.6,214.7,109.6,215.2z"/>
			<path style="fill:#FFFFFF;" d="M109.7,200c-0.2,2.8-0.3,5.7-0.3,8.5C109.3,205.6,109.4,202.8,109.7,200c0.1-2,0.3-4,0.6-5.9
				C110,196,109.8,198,109.7,200z"/>
			<path style="fill:#FFFFFF;" d="M109.7,199.9c-0.2,2.8-0.3,5.7-0.3,8.5c0,1.7,0,3.4,0.2,5.1c0,0.6,0.1,1.1,0.1,1.7
				c0.1,1.6,0.3,3.1,0.6,4.7c0.5,2.8,1.4,5.6,2.6,8.2c0-0.2,0.1-0.4,0.1-0.6c0-0.1,0-0.2,0.1-0.3c0-0.1,0-0.2,0-0.3
				c0-0.5-0.1-0.9,0-1.4c0.1-1.9,0.5-3.7,1-5.6c0.3-1.1,0.6-2.3,0.9-3.4c0.1-0.5,0.2-0.9,0.3-1.4c0.1-0.2,0.1-0.5,0.1-0.7
				c0-0.2,0.1-0.3,0.1-0.5c0.1-0.6,0.1-1.2,0.2-1.8c0-0.3,0-0.5,0-0.8c0-0.3,0-0.7,0-1c0-0.7,0.1-1.4,0.2-2.1c0.2-2,0.8-3.8,1.5-5.7
				c2.5-7.2,4.4-14.6,6.9-21.8c0.2-0.4,0.3-0.9,0.5-1.3c0.2-0.4,0.3-0.9,0.5-1.3c1-2.6,2.1-5.2,3.3-7.8c0.4-0.9,0.9-1.7,1.3-2.6
				c0.5-0.8,0.9-1.7,1.4-2.5c0,0,0,0,0,0c0.5-0.8,1-1.6,1.5-2.4v0l0,0c0.5-0.8,1.1-1.6,1.6-2.4c0.3-0.5,0.7-1,1.1-1.5
				c1.2-1.6,2.4-3.1,3.6-4.7c0.8-1,1.7-2.1,2.5-3.1c1.6-1.9,3.1-3.9,4.8-5.7c0.3-0.4,0.7-0.7,1-1.1c0.1-0.1,0.2-0.2,0.3-0.3
				c0.6-0.6,1.2-1.3,1.8-1.9c0.7-0.7,1.4-1.4,2.2-2.1c1.6-1.5,3.2-2.9,4.9-4.2c0.7-0.5,1.3-1.1,2-1.6c3.2-2.6,6.5-5.1,9.8-7.7
				c0.1,0,0.1-0.1,0.2-0.1c0.1,0,0.2,0,0.2,0c0.2-0.3,0.4-0.6,0.5-0.9c0.1-0.3,0.2-0.7,0.3-1c0.4-1.7-0.1-3.3-0.9-4.8
				c-0.1-0.2-0.2-0.4-0.4-0.6c-0.1-0.2-0.3-0.4-0.4-0.6c-0.1-0.1-0.1-0.2-0.2-0.3c-0.3-0.4-0.7-0.8-1-1.1c-0.1-0.1-0.2-0.2-0.3-0.3
				c-0.1-0.1-0.2-0.2-0.3-0.3c0,0,0,0,0,0c-0.3-0.2-0.6-0.5-0.9-0.7c0,0,0,0,0,0c-0.3-0.2-0.7-0.4-1-0.5c-0.8-0.3-1.6-0.4-2.4-0.2
				c-0.8,0.2-1.5,0.5-2.2,0.9c-0.4,0.2-0.8,0.5-1.2,0.7c-1.1,0.6-2.1,1.2-3.1,1.8c-1.6,0.9-3.1,2-4.6,3c-0.5,0.3-1,0.7-1.5,1.1
				c-2.4,1.8-4.8,3.7-7,5.8c-0.9,0.8-1.8,1.6-2.6,2.5c-0.9,0.9-1.7,1.7-2.5,2.6c-0.2,0.3-0.5,0.5-0.7,0.8c-0.6,0.6-1.1,1.3-1.7,1.9
				c-2,2.3-3.8,4.7-5.5,7.2c-0.7,1-1.3,2-2,3c-0.3,0.5-0.6,1-0.9,1.5c-0.6,1-1.2,2-1.8,3.1c-0.3,0.5-0.6,1-0.9,1.6
				c-0.3,0.5-0.6,1-0.8,1.6c-0.3,0.5-0.5,1-0.8,1.6c-1.1,2.1-2,4.3-3,6.5c-0.9,2.2-1.8,4.4-2.6,6.6c-0.9,2.5-1.7,5-2.4,7.6
				c-0.4,1.3-0.7,2.6-1,3.8c-0.8,3.2-1.4,6.5-1.9,9.7c-0.2,1.3-0.4,2.6-0.6,3.9C110,196,109.8,198,109.7,199.9z M109.9,222.8
				c-1-3.7-1.4-7.6-1.5-11.3c-0.1-2.1-0.1-4.3,0-6.4c0.1-3.3,0.4-6.6,0.7-9.8c0.4-3.4,0.9-6.7,1.6-10.1c0.2-1,0.4-2.1,0.7-3.1
				c0.2-1,0.4-1.9,0.7-2.9c0.3-1.3,0.7-2.6,1.1-3.9c0.4-1.3,0.8-2.6,1.2-3.9c0.8-2.6,1.8-5.1,2.8-7.6c0.7-1.7,1.4-3.4,2.2-5.1
				c0,0,0,0,0,0c0.5-1.1,1-2.2,1.6-3.3c0,0,0,0,0,0c0.2-0.5,0.5-1,0.8-1.5c2.8-5.5,6.2-10.8,10.1-15.7c1.6-2,3.2-3.9,4.9-5.7
				c0.4-0.5,0.9-0.9,1.3-1.4c0.4-0.5,0.9-0.9,1.4-1.4c0.4-0.4,0.9-0.9,1.4-1.3c0.7-0.6,1.3-1.2,2-1.8c0.8-0.7,1.5-1.3,2.3-2
				c1.9-1.6,4-3.1,6.1-4.5c1-0.7,2.1-1.4,3.2-2c1.1-0.7,2.2-1.4,3.4-2c1.1-0.6,2.1-1.2,3.2-1.6c1.8-0.6,3.6-0.1,5.1,0.9
				c0.1,0.1,0.3,0.2,0.4,0.3c0.3,0.2,0.5,0.4,0.8,0.7c0.2,0.2,0.4,0.4,0.6,0.6c0,0,0,0,0,0c0.8,0.8,1.5,1.8,2,2.8c0,0,0,0,0,0
				c0.1,0.2,0.2,0.4,0.3,0.7c0.1,0.2,0.1,0.3,0.2,0.5c0.1,0.4,0.2,0.8,0.3,1.2c0.3,2.1-0.2,4.3-1.8,5.7c-0.2,0.2-0.4,0.2-0.6,0
				c-0.5,0.4-1,0.8-1.6,1.2c-3.5,2.8-7.1,5.5-10.6,8.4c-2.7,2.2-5.3,4.6-7.6,7.2c-2.1,2.3-4,4.7-6,7.1c-0.5,0.7-1.1,1.3-1.6,2
				c-0.3,0.4-0.6,0.8-0.9,1.1c-0.6,0.8-1.2,1.5-1.8,2.3c0,0,0,0,0,0c-0.9,1.1-1.8,2.3-2.6,3.5c0,0,0,0,0,0c-0.6,0.8-1.1,1.6-1.7,2.4
				c-1,1.6-2,3.2-2.9,4.8c-0.2,0.4-0.5,0.8-0.7,1.2c-0.4,0.8-0.9,1.7-1.2,2.5c0,0,0,0,0,0c-0.2,0.4-0.4,0.9-0.6,1.3v0
				c-0.2,0.4-0.4,0.9-0.6,1.3c-0.6,1.3-1.1,2.6-1.6,3.9c-0.2,0.4-0.3,0.9-0.5,1.3c-0.5,1.3-0.9,2.7-1.4,4c-1.2,3.6-2.2,7.2-3.4,10.8
				c-0.5,1.8-1.1,3.6-1.7,5.3c-0.4,1.4-0.9,2.7-1.4,4.1c-0.2,0.5-0.3,0.9-0.4,1.4c-0.1,0.5-0.3,1-0.4,1.5c0,0,0,0,0,0
				c-0.2,0.7-0.3,1.5-0.3,2.2c0,0.3-0.1,0.7-0.1,1c0,0.4-0.1,0.8-0.1,1.3c0,0.5,0,1-0.1,1.5c-0.1,1.4-0.4,2.9-0.7,4.3v0
				c0,0.2-0.1,0.4-0.1,0.6c-0.2,0.9-0.5,1.9-0.7,2.8c-0.1,0.4-0.2,0.8-0.3,1.1c-0.1,0.4-0.2,0.8-0.2,1.1c-0.2,1.3-0.4,2.5-0.4,3.8
				c0,0,0,0.1,0.1,0.1c0,0.1,0.1,0.1,0.1,0.2c0,0.1,0,0.1,0,0.2c0,0.2-0.1,0.3-0.1,0.5c0,0.1,0,0.2,0,0.4c0,0.1,0,0.2,0,0.4
				c0.1,0.3-0.1,0.5-0.3,0.6h0c-0.1,0.3-0.1,0.5-0.2,0.8c0,0.1-0.1,0.3-0.1,0.4c-0.1,0.4-0.7,0.5-0.9,0.1c-0.3-0.6-0.6-1.1-0.8-1.7
				c-0.2-0.4-0.4-0.9-0.6-1.3c-0.1-0.1-0.1-0.3-0.2-0.4C110.6,225.3,110.2,224.1,109.9,222.8z"/>
			<path style="fill:#FCE883;" d="M108.8,153.7c0.2-0.4,0.3-0.8,0.5-1.2C109.1,152.9,108.9,153.3,108.8,153.7z"/>
			<path style="fill:#FFFFFF;" d="M109.1,195.2c-0.4,3.2-0.6,6.5-0.7,9.8C108.5,201.8,108.7,198.5,109.1,195.2
				c0.4-3.4,0.9-6.7,1.6-10.1C110,188.5,109.5,191.9,109.1,195.2z"/>
			<path style="fill:#FCE883;" d="M116.8,137.1c-4.2,5.9-7.7,12.4-10.3,19.3C109.2,149.6,112.7,143.1,116.8,137.1
				c1.3-1.9,2.8-3.8,4.3-5.6C119.7,133.3,118.2,135.2,116.8,137.1z"/>
			<path style="fill:#FCE883;" d="M107.8,156.1c-0.3,0.8-0.6,1.5-0.9,2.3C107.2,157.7,107.5,156.9,107.8,156.1z"/>
			<path style="fill:#FCE883;" d="M108,269.3c-1.3-0.3-2.6-0.6-3.9-1C105.4,268.7,106.7,269.1,108,269.3z"/>
			<path style="fill:#7B3F00;" d="M103.4,269.2c1.2,0.4,2.4,0.7,3.7,1C105.8,269.9,104.6,269.6,103.4,269.2z"/>
			<path style="fill:#FCE883;" d="M106.4,159.8c-0.4,1.2-0.8,2.5-1.2,3.8C105.6,162.3,106,161.1,106.4,159.8z"/>
			<path style="fill:#FCE883;" d="M104.7,199.2c0.2,0.2,0.2,0.4,0.1,0.6C104.9,199.6,104.8,199.3,104.7,199.2z"/>
			<path style="fill:#FCE883;" d="M104.6,199.1C104.6,199.1,104.6,199.1,104.6,199.1C104.6,199.1,104.6,199.1,104.6,199.1z"/>
			<path style="fill:#FCE883;" d="M104.4,198.9c0.1,0,0.1-0.1,0.1-0.2C104.5,198.8,104.4,198.9,104.4,198.9z"/>
			<path style="fill:#FCE883;" d="M104.3,199c0.1,0,0.2,0,0.2,0C104.4,199,104.3,199,104.3,199C104.3,199,104.3,199,104.3,199z"/>
			<path style="fill:#FCE883;" d="M104.3,199c0,0,0.1,0,0.1-0.1C104.3,198.9,104.3,199,104.3,199C104.3,199,104.3,199,104.3,199z"/>
			<path style="fill:#FCE883;" d="M104.9,164.8c-0.3,1.3-0.6,2.5-0.9,3.8C104.3,167.4,104.6,166.1,104.9,164.8z"/>
			<path style="fill:#FCE883;" d="M104.1,168.6c-0.3,1.3-0.5,2.6-0.7,3.9C103.6,171.2,103.8,169.9,104.1,168.6z"/>
			<path style="fill:#FCE883;" d="M103.5,198.7c-0.3-1.1-0.6-2.3-0.8-3.5C103,196.4,103.2,197.5,103.5,198.7z"/>
			<path style="fill:#FCE883;" d="M101.8,200.8c0.9-0.3,1.8-0.6,2.7-0.8C103.6,200.2,102.7,200.5,101.8,200.8z"/>
			<path style="fill:#FCE883;" d="M104.5,198.4c-2.2-8.5-2.5-17.3-1.1-25.9C102.1,181.1,102.3,189.9,104.5,198.4c0,0.1,0,0.1,0,0.1
				C104.5,198.5,104.5,198.5,104.5,198.4z"/>
			<path style="fill:#FCE883;" d="M101.9,189.3c-0.9-8.7,0.1-17.6,2.4-26c0.5-1.7,1-3.4,1.6-5c-0.6,1.7-1.1,3.3-1.6,5
				C102,171.7,101,180.6,101.9,189.3z"/>
			<path style="fill:#FCE883;" d="M101.2,199.9c-0.9,0.3-1.8,0.7-2.6,1.1C99.5,200.6,100.4,200.2,101.2,199.9z"/>
			<path style="fill:#FCE883;" d="M98.6,201c-0.9,0.4-1.7,0.8-2.5,1.3C96.9,201.8,97.8,201.4,98.6,201z"/>
			<path style="fill:#FCE883;" d="M93.2,205.4c-0.4,0.3-0.7,0.6-1.1,0.9C92.5,205.9,92.8,205.6,93.2,205.4z"/>
			<path style="fill:#7B3F00;" d="M91.2,262.4c0.2,0.2,0.4,0.4,0.6,0.6C91.7,262.8,91.5,262.6,91.2,262.4z"/>
			<path style="fill:#FCE883;" d="M90.4,206.4c-0.3,0.3-0.7,0.6-1,1C89.7,207,90,206.7,90.4,206.4z"/>
			<path style="fill:#FCE883;" d="M89.3,207.4c-0.3,0.3-0.7,0.7-1,1C88.7,208,89,207.7,89.3,207.4z"/>
			<path style="fill:#FCE883;" d="M88.1,257.5c1,1.3,2,2.5,3.2,3.7h0C90.2,260,89.1,258.8,88.1,257.5z"/>
			<path style="fill:#FCE883;" d="M88.3,208.4c-0.3,0.3-0.6,0.7-1,1C87.7,209.1,88,208.7,88.3,208.4z"/>
			<path style="fill:#FCE883;" d="M88.1,210.1c-1.2,1.4-2.4,2.9-3.4,4.5c-0.4,0.7-0.8,1.3-1.2,2c0.4-0.7,0.8-1.4,1.2-2
				C85.7,213,86.8,211.5,88.1,210.1z"/>
			<path style="fill:#FCE883;" d="M85.6,211.6c0.6-0.8,1.2-1.5,1.8-2.2C86.7,210.1,86.1,210.9,85.6,211.6c-0.8,1.1-1.6,2.2-2.3,3.4
				C84,213.8,84.7,212.7,85.6,211.6z"/>
			<path style="fill:#FCE883;" d="M83.5,216.6c-0.4,0.7-0.7,1.4-1.1,2.1C82.8,218,83.1,217.3,83.5,216.6z"/>
			<path style="fill:#FCE883;" d="M82.6,247.2C82.6,247.2,82.6,247.2,82.6,247.2C82.6,247.2,82.6,247.2,82.6,247.2z"/>
			<path style="fill:#FCE883;" d="M82.6,247.2c-0.4-1.1-0.8-2.2-1.2-3.4C81.8,245,82.2,246.1,82.6,247.2z"/>
			<path style="fill:#FCE883;" d="M82,219.8c-0.3,0.7-0.6,1.4-0.8,2.2C81.4,221.2,81.7,220.5,82,219.8z"/>
			<path style="fill:#FCE883;" d="M80.6,240.8c0.2,1,0.5,2,0.8,3C81.1,242.8,80.8,241.8,80.6,240.8z"/>
			<path style="fill:#FCE883;" d="M82.6,216.2c-0.9,1.6-1.6,3.3-2.2,5C80.9,219.5,81.7,217.8,82.6,216.2z"/>
			<path style="fill:#FCE883;" d="M80,226.5c0.2-1.1,0.5-2.3,0.8-3.4C80.5,224.2,80.2,225.4,80,226.5z"/>
			<path style="fill:#C12946;" d="M81.7,247.5c-1-2.6-1.8-5.3-2.4-8.1c-0.2-0.8-0.3-1.6-0.4-2.4c-0.2-1.3-0.3-2.7-0.4-4.1
				c0-0.2,0-0.5,0-0.7c0-3.3,0.5-6.6,1.5-9.7c0.1-0.4,0.3-0.9,0.4-1.3c0.6-1.7,1.4-3.4,2.2-5c0.2-0.4,0.4-0.8,0.7-1.2
				c0.7-1.2,1.5-2.3,2.3-3.4c0.6-0.8,1.2-1.5,1.8-2.2c0.3-0.4,0.6-0.7,1-1c0.3-0.3,0.7-0.7,1-1c0.3-0.3,0.7-0.6,1-1
				c1.8-1.6,3.7-3,5.7-4.1c0.8-0.5,1.7-0.9,2.5-1.3c0,0,0,0,0,0c0.9-0.4,1.7-0.8,2.6-1.1c0.9-0.3,1.8-0.6,2.7-0.8
				c-0.2,0-0.3-0.1-0.4-0.4c0,0,0,0,0,0c-0.3-1.1-0.6-2.3-0.8-3.5c-0.2-1.2-0.4-2.4-0.6-3.6c-0.1-0.8-0.2-1.6-0.3-2.4
				c-0.9-8.7,0.1-17.6,2.4-26c0.5-1.7,1-3.4,1.6-5c0.2-0.6,0.4-1.3,0.7-1.9c2.6-6.8,6.1-13.3,10.3-19.3c1.4-1.9,2.8-3.8,4.3-5.6
				c0,0,0,0,0,0c1.9-2.3,3.9-4.5,6-6.6c1.2-1.2,2.5-2.5,3.9-3.7c0,0,0,0,0,0c0.9-0.8,1.8-1.6,2.7-2.3c0,0,0,0,0,0
				c0.9-0.8,1.8-1.5,2.8-2.2c0.9-0.7,1.9-1.4,2.8-2.1c0.5-0.3,0.9-0.7,1.4-1c4.3-3,8.9-5.7,13.7-7.9c0.5-0.2,1.1-0.5,1.6-0.8
				c1.6-0.7,3.2-1.4,4.8-2.1c1.1-0.4,2.2-0.9,3.3-1.2c0.5-0.2,1.1-0.4,1.7-0.6c1.1-0.4,2.2-0.7,3.4-1.1c2.8-0.8,5.7-1.6,8.6-2.2
				c0.6-0.1,1.2-0.2,1.7-0.3c1.2-0.2,2.3-0.4,3.5-0.6c1.2-0.2,2.3-0.3,3.5-0.4c0.6-0.1,1.2-0.1,1.8-0.2c7.1-0.6,14.2-0.5,21.2,0.5
				c0.2,0,0.4,0.1,0.6,0.1c1.5,0.2,3,0.4,4.4,0.7c0.8,0.2,1.7,0.3,2.5,0.5c9.5,2,18.7,5.4,27.2,10c4.8,2.6,9.4,5.6,13.7,9
				c1,0.7,1.9,1.5,2.8,2.3c0.5,0.4,0.9,0.8,1.4,1.2c1.4,1.2,2.7,2.4,4,3.7c0.4,0.4,0.9,0.9,1.3,1.3c0.9,0.9,1.7,1.8,2.6,2.8
				c0.4,0.5,0.8,0.9,1.2,1.4c1.3,1.6,2.5,3.2,3.6,4.9c0.3,0.4,0.5,0.8,0.8,1.2c0.3,0.5,0.6,1.1,0.9,1.6c0.5,0.9,0.9,1.8,1.3,2.6
				c0.5,1.2,1,2.4,1.4,3.6c0.5,1.5,1,3.1,1.3,4.7c0.3,1.3,0.5,2.6,0.7,3.9c1.1,8,0.7,16,0.9,24.1c0.1,2.7,0.2,5.3,0.4,8
				c0,0,0,0,0,0.1c5.9,1.1,11.8,2.1,17.7,3.3c4.8,1,9.6,2.4,13.6,5.5c0.9,0.7,1.7,1.5,2.5,2.4c1.3,1.5,2.2,3.3,2.8,5.1
				c0.1,0.3,0.2,0.6,0.2,0.9c0.3,1.1,0.4,2.2,0.4,3.4c0,1.6-0.2,3.3-0.5,4.9c-0.3,1.5-0.8,2.9-1.3,4.4c0,0,0,0,0,0
				c-0.5,1.3-1.1,2.6-1.7,3.8c-0.2,0.4-0.4,0.8-0.6,1.2c-0.3,0.6-0.6,1.2-0.9,1.8c-0.6,1.2-1.3,2.3-2,3.5c0,0,0,0,0,0
				c-0.7,1.1-1.4,2.3-2.1,3.4c-1.1,1.7-2.3,3.3-3.5,4.9c0,0.1-0.1,0.1-0.1,0.1c0,0-0.1,0-0.1,0.1v0c1.7,5.2,3.5,11.3,1.7,16.6
				c-0.2,0.7-0.5,1.4-0.9,2c-0.3,0.5-0.6,1-0.9,1.4c-0.7,1-1.5,1.9-2.4,2.7c-0.6,0.5-1.2,1.1-1.8,1.6c0,0,0,0,0,0
				c-0.6,0.5-1.2,1-1.9,1.5c-0.3,0.2-0.6,0.5-0.9,0.8c-0.3,0.3-0.6,0.5-1,0.8c-2.3,1.8-4.6,3.6-7.1,5.1c-0.7,0.5-1.5,0.9-2.2,1.3
				c0,0,0,0,0,0c-3,1.6-6.3,2.8-9.6,3.7c0,0,0,0,0,0c-0.8,0.2-1.7,0.4-2.5,0.6c-1.3,0.3-2.5,0.5-3.8,0.7c-0.4,0.1-0.9,0.1-1.3,0.2h0
				c-1.4,0.2-2.9,0.4-4.3,0.5c-1.4,0.1-2.9,0.2-4.3,0.3c-10.8,0.4-21.7-1.4-31.8-5.3c-0.1,0-0.1-0.1-0.2-0.1c0,0,0,0,0,0
				c-6.3,3-12.1,6.9-18.1,10.5c-0.6,0.4-1.2,0.7-1.8,1c-0.6,0.3-1.2,0.7-1.8,1c0,0,0,0,0,0c-9.7,5.5-20.4,10-31.7,8.4
				c-0.4-0.1-0.8-0.1-1.2-0.2c-1.9-0.3-3.8-0.8-5.6-1.4c-0.4-0.1-0.7-0.2-1.1-0.4c-3.3-1.2-6.4-2.7-9.5-4.4
				c-2.1-1.2-4.2-2.5-6.2-3.8c-0.7-0.5-1.3-0.9-2-1.4c-0.4-0.3-0.8-0.6-1.2-0.9c-0.7-0.5-1.5-1-2.2-1.6c-1.5-1.1-2.9-2.2-4.3-3.4
				c-0.1-0.1-0.1-0.1-0.2-0.2c0,0,0-0.1,0-0.1h0c-0.1,0-0.1,0-0.2,0c-1.3,0-2.6,0-3.9,0c-10.1,0.2-20.2,1.7-30.3,0.2
				c-1.2-0.2-2.3-0.4-3.5-0.6c-1.2-0.3-2.5-0.6-3.7-1c-1.8-0.6-3.5-1.2-5.2-2.1c-2.2-1.1-4.3-2.5-6.2-4.1c-0.2-0.2-0.4-0.4-0.6-0.6
				c-1.2-1-2.2-2.2-3.2-3.4C85.3,255.6,83.3,251.6,81.7,247.5z M80,226.5c-0.6,3.4-0.7,6.9-0.2,10.4c0.2,1.3,0.5,2.6,0.8,3.9
				c0.2,1,0.5,2,0.8,3c0.3,1.1,0.8,2.3,1.2,3.4c0,0,0,0,0,0c0.4,1.1,0.9,2.2,1.4,3.3c1.2,2.5,2.5,4.9,4.1,7c1,1.3,2,2.5,3.2,3.7h0
				c3.6,3.5,8,5.8,12.8,7.2c1.3,0.4,2.6,0.7,3.9,1c0.9,0.2,1.8,0.3,2.7,0.5c1.2,0.2,2.4,0.3,3.7,0.4c0.1,0,0.2,0,0.3,0
				c1,0.1,2,0.1,2.9,0.2c4.3,0.1,8.6-0.1,12.9-0.3c0.5,0,0.9-0.1,1.4-0.1c4.3-0.3,8.6-0.5,12.8-0.4c0.1,0,0.1,0,0.2,0c0,0,0,0,0,0
				c0,0,0.1,0,0.1,0c0.1,0.1,0.2,0.3,0.2,0.5v0c0.1-0.1,0.2-0.1,0.3-0.1c0,0,0.1,0,0.2,0c0.1,0,0.1,0.1,0.2,0.1
				c3.4,2.8,7.1,5.5,10.8,7.9c1.6,1,3.3,2,5,3c0.6,0.4,1.3,0.7,2,1.1c0,0,0,0,0,0c0.7,0.4,1.4,0.7,2.1,1c3.1,1.5,6.3,2.8,9.7,3.6
				c0.4,0.1,0.7,0.2,1.1,0.3c1.5,0.3,3,0.5,4.6,0.6c3.2,0.2,6.4-0.1,9.6-0.7c0.5-0.1,1.1-0.2,1.6-0.4c0,0,0,0,0,0
				c1-0.2,1.9-0.5,2.9-0.8c1.3-0.4,2.6-0.9,3.8-1.4c1.1-0.4,2.2-0.9,3.2-1.4c0.7-0.3,1.4-0.7,2.1-1c0.7-0.4,1.4-0.7,2.1-1.1
				c0.7-0.4,1.4-0.7,2.1-1.1c5.1-2.9,10.1-6.1,15.1-9.1c2.7-1.6,5.4-3.1,8.3-4.4c0.4-0.2,0.7,0.1,0.8,0.4c4.8,1.8,9.7,3.2,14.7,4
				c0.4,0.1,0.9,0.2,1.4,0.2c1.8,0.3,3.6,0.5,5.5,0.7c6.6,0.6,13.3,0.3,19.9-0.8c0.4-0.1,0.8-0.1,1.2-0.2c1.6-0.3,3.3-0.6,4.9-1.1
				c1.2-0.3,2.4-0.7,3.6-1.1c0.4-0.1,0.8-0.3,1.2-0.4c0.4-0.2,0.8-0.3,1.2-0.5c0.8-0.3,1.5-0.7,2.2-1.1c1.5-0.8,2.9-1.6,4.3-2.6
				c2.8-1.9,5.3-4,7.9-6.1c2.4-2,4.9-3.9,6.4-6.7c3-5.6,0.9-12.3-1-17.9c-0.1-0.2,0-0.4,0.1-0.5c0,0,0.1,0,0.1-0.1v0
				c0-0.1,0-0.2,0.1-0.3c0.9-1.1,1.7-2.3,2.5-3.5c0.8-1.2,1.6-2.4,2.4-3.6c1.5-2.4,2.9-5,4.1-7.6c1-2.1,2-4.4,2.6-6.7
				c0.6-2.4,1-4.9,0.7-7.4c-0.2-1.8-0.8-3.5-1.6-5c-0.4-0.6-0.8-1.2-1.2-1.8c0,0,0,0,0,0c-0.3-0.4-0.7-0.8-1.1-1.2
				c-0.2-0.2-0.4-0.4-0.6-0.6c-0.3-0.3-0.6-0.6-1-0.8c-0.5-0.4-1.1-0.8-1.7-1.2c-1.6-1-3.3-1.8-5-2.4c-0.8-0.3-1.7-0.6-2.5-0.8
				c-0.7-0.2-1.3-0.4-2-0.5c-0.6-0.1-1.1-0.2-1.7-0.4c-0.2,0-0.4-0.1-0.5-0.1c-0.4-0.1-0.8-0.2-1.3-0.2c-0.3-0.1-0.6-0.1-0.9-0.2
				c-5-0.9-10.1-1.9-15.1-2.8c-0.4-0.1-0.8-0.1-1.1-0.2c0,0-0.1,0-0.1,0c-0.1,0-0.2-0.1-0.3-0.1c-0.1-0.1-0.1-0.3,0-0.5
				c0-0.1,0-0.1,0.1-0.2c0.1-0.1,0.3-0.2,0.5-0.2c0.1,0,0.1,0,0.1,0h0c0,0,0,0,0-0.1c0-0.6-0.1-1.1-0.1-1.7
				c-0.1-1.9-0.2-3.8-0.3-5.8c0-0.9,0-1.7,0-2.6c0-1,0-2,0-3c0-2.9,0-5.8-0.1-8.7c0-2.4-0.2-4.8-0.4-7.2c0-0.5-0.1-1-0.2-1.4
				c-0.1-1-0.2-1.9-0.4-2.9c0,0,0-0.1,0-0.1c-0.2-1.4-0.5-2.8-0.9-4.2c0,0,0,0,0,0c-0.1-0.5-0.2-0.9-0.4-1.4
				c-0.2-0.6-0.4-1.2-0.6-1.8c-1.5-4.1-3.7-7.9-6.3-11.4c-0.4-0.5-0.8-1-1.2-1.5c-2.7-3.4-5.9-6.5-9.1-9.4
				c-14.4-12.7-32.6-20.8-51.6-23.5c-18.6-2.6-37.8,0.5-54.8,8.6c-2.1,1-4.2,2.1-6.2,3.2c-1.5,0.9-3,1.8-4.5,2.7
				c-4.9,3.1-9.6,6.7-13.9,10.7c-0.9,0.8-1.7,1.6-2.5,2.4c-0.8,0.8-1.6,1.7-2.4,2.5c-1.2,1.3-2.4,2.6-3.5,3.9
				c-0.8,0.9-1.5,1.8-2.2,2.7c-0.7,0.9-1.4,1.9-2.1,2.8c-0.7,0.9-1.3,1.9-2,2.9c0,0,0,0,0,0c-0.7,1-1.3,2-1.9,3v0
				c-0.2,0.4-0.4,0.7-0.7,1.1c0,0,0,0,0,0c-0.2,0.4-0.4,0.8-0.6,1.1c-0.6,1.1-1.2,2.3-1.8,3.5c-0.4,0.8-0.8,1.6-1.1,2.4
				c-0.2,0.4-0.4,0.8-0.5,1.2c-0.2,0.4-0.3,0.8-0.5,1.2c-0.3,0.8-0.7,1.6-1,2.4c-0.3,0.8-0.6,1.5-0.9,2.3c-0.2,0.5-0.3,0.9-0.5,1.4
				c-0.4,1.2-0.8,2.5-1.2,3.8c-0.1,0.4-0.2,0.8-0.3,1.3c-0.3,1.3-0.6,2.5-0.9,3.8c-0.3,1.3-0.5,2.6-0.7,3.9
				c-1.3,8.6-1.1,17.4,1.1,25.9c0,0.1,0,0.1,0,0.1c0,0.1,0,0.1,0,0.1c0,0.1-0.1,0.2-0.1,0.2c0,0-0.1,0.1-0.1,0.1c0,0,0,0,0,0
				c0,0,0,0,0,0c0.1,0,0.2,0,0.2,0c0,0,0.1,0,0.1,0.1c0,0,0,0,0,0c0,0,0.1,0,0.1,0.1c0.2,0.2,0.2,0.4,0.1,0.6
				c-0.1,0.1-0.2,0.1-0.3,0.2c-0.9,0.2-1.8,0.5-2.7,0.8h0c-3.1,1.1-6,2.7-8.6,4.6c-0.4,0.3-0.7,0.6-1.1,0.9c-1.4,1.2-2.8,2.5-4,3.9
				c-1.2,1.4-2.4,2.9-3.4,4.5c-0.4,0.7-0.8,1.3-1.2,2c-0.4,0.7-0.7,1.4-1.1,2.1c-0.2,0.4-0.3,0.7-0.5,1.1c-0.3,0.7-0.6,1.4-0.8,2.2
				c-0.1,0.4-0.2,0.8-0.4,1.1C80.5,224.2,80.2,225.4,80,226.5z"/>
			<path style="fill:#FCE883;" d="M78.8,237.1c0.1,0.8,0.3,1.6,0.4,2.4C79.1,238.7,78.9,237.9,78.8,237.1z"/>
			<path style="fill:#FCE883;" d="M78.4,232.3c0-3.3,0.5-6.6,1.5-9.7C78.9,225.7,78.4,229,78.4,232.3z"/>
		</g>
		<g>
		</g>
	</g>
</g>
</svg>
