<?xml version="1.0" encoding="iso-8859-1"?>
<!-- Generator: Adobe Illustrator 19.0.0, SVG Export Plug-In . SVG Version: 6.00 Build 0)  -->
<svg version="1.1" id="Layer_1" xmlns="http://www.w3.org/2000/svg" xmlns:xlink="http://www.w3.org/1999/xlink" x="0px" y="0px"
	 viewBox="0 0 512 512" style="enable-background:new 0 0 512 512;" xml:space="preserve">
<g>
	
		<rect x="195.012" y="48.189" transform="matrix(-0.8201 -0.5723 0.5723 -0.8201 298.905 345.6702)" style="fill:#4D4D4D;" width="17.569" height="155.309"/>
	
		<rect x="230.552" y="117.025" transform="matrix(-0.5723 -0.82 0.82 -0.5723 381.4222 450.5463)" style="fill:#4D4D4D;" width="155.296" height="17.569"/>
</g>
<rect y="167.702" style="fill:#47A7DD;" width="512" height="303.061"/>
<path style="fill:#ABDAEF;" d="M480.625,394.259V244.203c-24.924,0-45.127-20.204-45.127-45.127H76.501
	c0,24.924-20.204,45.127-45.127,45.127v150.056c24.924,0,45.127,20.204,45.127,45.127h358.996
	C435.497,414.463,455.702,394.259,480.625,394.259z"/>
<g>
	<path style="fill:#47A7DD;" d="M130.197,268.339c-18.056,0-32.747,14.691-32.747,32.747v36.294
		c0,18.056,14.691,32.747,32.747,32.747s32.747-14.691,32.747-32.747v-36.294C162.944,283.029,148.254,268.339,130.197,268.339z
		 M144.12,337.379c0,7.677-6.246,13.923-13.923,13.923c-7.677,0-13.923-6.246-13.923-13.923v-36.294
		c0-7.677,6.246-13.923,13.923-13.923c7.677,0,13.923,6.246,13.923,13.923V337.379z"/>
	<path style="fill:#47A7DD;" d="M211.79,268.336h-20.1c-5.199,0-9.412,4.214-9.412,9.412v82.966c0,5.198,4.213,9.412,9.412,9.412
		c5.199,0,9.412-4.214,9.412-9.412v-20.431h10.687c19.836,0,35.974-16.138,35.974-35.974
		C247.764,284.474,231.626,268.336,211.79,268.336z M211.79,321.459h-10.687v-34.298h10.687c9.456,0,17.149,7.693,17.149,17.149
		S221.248,321.459,211.79,321.459z"/>
	<path style="fill:#47A7DD;" d="M319.613,287.163c5.199,0,9.412-4.214,9.412-9.412s-4.213-9.412-9.412-9.412h-46.67
		c-5.199,0-9.412,4.214-9.412,9.412v82.962c0,5.198,4.213,9.412,9.412,9.412h46.67c5.199,0,9.412-4.214,9.412-9.412
		s-4.213-9.412-9.412-9.412h-37.257v-22.302h22.406c5.199,0,9.412-4.214,9.412-9.412s-4.213-9.412-9.412-9.412h-22.406v-23.011
		L319.613,287.163L319.613,287.163z"/>
	<path style="fill:#47A7DD;" d="M405.136,268.339c-5.199,0-9.412,4.214-9.412,9.412v49.031l-32.384-53.881
		c-2.179-3.624-6.506-5.351-10.584-4.22c-4.075,1.131-6.896,4.84-6.896,9.07v82.962c0,5.198,4.213,9.412,9.412,9.412
		c5.199,0,9.412-4.214,9.412-9.412v-49.031l32.384,53.881c1.733,2.883,4.825,4.564,8.068,4.564c0.835,0,1.682-0.112,2.516-0.343
		c4.075-1.131,6.896-4.84,6.896-9.07v-82.962C414.548,272.553,410.335,268.339,405.136,268.339z"/>
	<circle style="fill:#47A7DD;" cx="256" cy="62.097" r="20.86"/>
</g>
<g>
</g>
<g>
</g>
<g>
</g>
<g>
</g>
<g>
</g>
<g>
</g>
<g>
</g>
<g>
</g>
<g>
</g>
<g>
</g>
<g>
</g>
<g>
</g>
<g>
</g>
<g>
</g>
<g>
</g>
</svg>
